<svg xmlns="http://www.w3.org/2000/svg" xmlns:xlink="http://www.w3.org/1999/xlink" contentStyleType="text/css" data-diagram-type="CLASS" height="921px" preserveAspectRatio="none" style="width:1365px;height:921px;background:#FFFFFF;" version="1.1" viewBox="0 0 1365 921" width="1365px" zoomAndPan="magnify"><defs/><g><!--class CanonicalEntity--><g class="entity" data-entity="CanonicalEntity" data-source-line="1" data-uid="ent0002" id="entity_CanonicalEntity"><a href="" target="_top" title="A logical identity construct providing a stable identity anchor." xlink:actuate="onRequest" xlink:href="" xlink:show="new" xlink:title="A logical identity construct providing a stable identity anchor." xlink:type="simple"><rect fill="#F1F1F1" height="64.2969" rx="2.5" ry="2.5" style="stroke:#181818;stroke-width:0.5;" width="141.5938" x="7" y="627.04"/><ellipse cx="22" cy="643.04" fill="#ADD1B2" rx="11" ry="11" style="stroke:#181818;stroke-width:1;"/><path d="M24.9688,648.6806 Q24.3906,648.9775 23.75,649.1181 Q23.1094,649.2744 22.4063,649.2744 Q19.9063,649.2744 18.5781,647.6338 Q17.2656,645.9775 17.2656,642.8525 Q17.2656,639.7275 18.5781,638.0713 Q19.9063,636.415 22.4063,636.415 Q23.1094,636.415 23.75,636.5713 Q24.4063,636.7275 24.9688,637.0244 L24.9688,639.7431 Q24.3438,639.165 23.75,638.8994 Q23.1563,638.6181 22.5313,638.6181 Q21.1875,638.6181 20.5,639.6963 Q19.8125,640.7588 19.8125,642.8525 Q19.8125,644.9463 20.5,646.0244 Q21.1875,647.0869 22.5313,647.0869 Q23.1563,647.0869 23.75,646.8213 Q24.3438,646.54 24.9688,645.9619 L24.9688,648.6806 Z " fill="#000000"/><text fill="#000000" font-family="sans-serif" font-size="14" lengthAdjust="spacing" textLength="109.5938" x="36" y="647.8867">CanonicalEntity</text><line style="stroke:#181818;stroke-width:0.5;" x1="8" x2="147.5938" y1="659.04" y2="659.04"/><text fill="#000000" font-family="sans-serif" font-size="14" lengthAdjust="spacing" textLength="116.6348" x="13" y="676.0351">identifier : string</text><line style="stroke:#181818;stroke-width:0.5;" x1="8" x2="147.5938" y1="683.3369" y2="683.3369"/></a></g><!--class EntityMentionIdentifier--><g class="entity" data-entity="EntityMentionIdentifier" data-source-line="4" data-uid="ent0003" id="entity_EntityMentionIdentifier"><a href="" target="_top" title="A container that groups the attributes needed to identify an entity mention in a resolution request" xlink:actuate="onRequest" xlink:href="" xlink:show="new" xlink:title="A container that groups the attributes needed to identify an entity mention in a resolution request" xlink:type="simple"><rect fill="#F1F1F1" height="96.8906" rx="2.5" ry="2.5" style="stroke:#181818;stroke-width:0.5;" width="192.3232" x="300.64" y="817.23"/><ellipse cx="315.64" cy="833.23" fill="#ADD1B2" rx="11" ry="11" style="stroke:#181818;stroke-width:1;"/><path d="M318.6088,838.8706 Q318.0306,839.1675 317.39,839.3081 Q316.7494,839.4644 316.0463,839.4644 Q313.5463,839.4644 312.2181,837.8238 Q310.9056,836.1675 310.9056,833.0425 Q310.9056,829.9175 312.2181,828.2613 Q313.5463,826.605 316.0463,826.605 Q316.7494,826.605 317.39,826.7613 Q318.0463,826.9175 318.6088,827.2144 L318.6088,829.9331 Q317.9838,829.355 317.39,829.0894 Q316.7963,828.8081 316.1713,828.8081 Q314.8275,828.8081 314.14,829.8863 Q313.4525,830.9488 313.4525,833.0425 Q313.4525,835.1363 314.14,836.2144 Q314.8275,837.2769 316.1713,837.2769 Q316.7963,837.2769 317.39,837.0113 Q317.9838,836.73 318.6088,836.1519 L318.6088,838.8706 Z " fill="#000000"/><text fill="#000000" font-family="sans-serif" font-size="14" lengthAdjust="spacing" textLength="160.3232" x="329.64" y="838.0767">EntityMentionIdentifier</text><line style="stroke:#181818;stroke-width:0.5;" x1="301.64" x2="491.9632" y1="849.23" y2="849.23"/><text fill="#000000" font-family="sans-serif" font-size="14" lengthAdjust="spacing" textLength="120.3809" x="306.64" y="866.2251">source_id : string</text><text fill="#000000" font-family="sans-serif" font-size="14" lengthAdjust="spacing" textLength="127.1074" x="306.64" y="882.522">request_id : string</text><text fill="#000000" font-family="sans-serif" font-size="14" lengthAdjust="spacing" textLength="132.7197" x="306.64" y="898.8189">entity_type : string</text><line style="stroke:#181818;stroke-width:0.5;" x1="301.64" x2="491.9632" y1="906.1206" y2="906.1206"/></a></g><!--class Decision--><g class="entity" data-entity="Decision" data-source-line="9" data-uid="ent0004" id="entity_Decision"><a href="" target="_top" title="Aggregate root representing a resolution decision requiring curation." xlink:actuate="onRequest" xlink:href="" xlink:show="new" xlink:title="Aggregate root representing a resolution decision requiring curation." xlink:type="simple"><rect fill="#F1F1F1" height="129.4844" rx="2.5" ry="2.5" style="stroke:#181818;stroke-width:0.5;" width="172.8496" x="967.37" y="594.45"/><ellipse cx="1019.7435" cy="610.45" fill="#ADD1B2" rx="11" ry="11" style="stroke:#181818;stroke-width:1;"/><path d="M1022.7123,616.0906 Q1022.1342,616.3875 1021.4935,616.5281 Q1020.8529,616.6844 1020.1498,616.6844 Q1017.6498,616.6844 1016.3217,615.0437 Q1015.0092,613.3875 1015.0092,610.2625 Q1015.0092,607.1375 1016.3217,605.4812 Q1017.6498,603.825 1020.1498,603.825 Q1020.8529,603.825 1021.4935,603.9812 Q1022.1498,604.1375 1022.7123,604.4344 L1022.7123,607.1531 Q1022.0873,606.575 1021.4935,606.3094 Q1020.8998,606.0281 1020.2748,606.0281 Q1018.931,606.0281 1018.2435,607.1062 Q1017.556,608.1687 1017.556,610.2625 Q1017.556,612.3562 1018.2435,613.4344 Q1018.931,614.4969 1020.2748,614.4969 Q1020.8998,614.4969 1021.4935,614.2312 Q1022.0873,613.95 1022.7123,613.3719 L1022.7123,616.0906 Z " fill="#000000"/><text fill="#000000" font-family="sans-serif" font-size="14" lengthAdjust="spacing" textLength="59.6025" x="1040.2435" y="615.2967">Decision</text><line style="stroke:#181818;stroke-width:0.5;" x1="968.37" x2="1139.2196" y1="626.45" y2="626.45"/><text fill="#000000" font-family="sans-serif" font-size="14" lengthAdjust="spacing" textLength="66.582" x="973.37" y="643.4451">id : string</text><text fill="#000000" font-family="sans-serif" font-size="14" lengthAdjust="spacing" textLength="160.8496" x="973.37" y="659.742">status : DecisionStatus</text><text fill="#000000" font-family="sans-serif" font-size="14" lengthAdjust="spacing" textLength="160.4053" x="973.37" y="676.0389">action : DecisionAction</text><text fill="#000000" font-family="sans-serif" font-size="14" lengthAdjust="spacing" textLength="151.5186" x="973.37" y="692.3357">created_at : datetime</text><text fill="#000000" font-family="sans-serif" font-size="14" lengthAdjust="spacing" textLength="156.0986" x="973.37" y="708.6326">updated_at : datetime</text><line style="stroke:#181818;stroke-width:0.5;" x1="968.37" x2="1139.2196" y1="715.9344" y2="715.9344"/></a></g><!--class EntityMentionResolutionResponse--><g class="entity" data-entity="EntityMentionResolutionResponse" data-source-line="16" data-uid="ent0005" id="entity_EntityMentionResolutionResponse"><a href="" target="_top" title="An entity resolution response returned by the ERE." xlink:actuate="onRequest" xlink:href="" xlink:show="new" xlink:title="An entity resolution response returned by the ERE." xlink:type="simple"><rect fill="#F1F1F1" height="96.8906" rx="2.5" ry="2.5" style="stroke:#181818;stroke-width:0.5;" width="270.9023" x="661.35" y="610.75"/><ellipse cx="676.35" cy="626.75" fill="#ADD1B2" rx="11" ry="11" style="stroke:#181818;stroke-width:1;"/><path d="M679.3188,632.3906 Q678.7406,632.6875 678.1,632.8281 Q677.4594,632.9844 676.7563,632.9844 Q674.2563,632.9844 672.9281,631.3438 Q671.6156,629.6875 671.6156,626.5625 Q671.6156,623.4375 672.9281,621.7813 Q674.2563,620.125 676.7563,620.125 Q677.4594,620.125 678.1,620.2813 Q678.7563,620.4375 679.3188,620.7344 L679.3188,623.4531 Q678.6938,622.875 678.1,622.6094 Q677.5063,622.3281 676.8813,622.3281 Q675.5375,622.3281 674.85,623.4063 Q674.1625,624.4688 674.1625,626.5625 Q674.1625,628.6563 674.85,629.7344 Q675.5375,630.7969 676.8813,630.7969 Q677.5063,630.7969 678.1,630.5313 Q678.6938,630.25 679.3188,629.6719 L679.3188,632.3906 Z " fill="#000000"/><text fill="#000000" font-family="sans-serif" font-size="14" lengthAdjust="spacing" textLength="238.9023" x="690.35" y="631.5967">EntityMentionResolutionResponse</text><line style="stroke:#181818;stroke-width:0.5;" x1="662.35" x2="931.2523" y1="642.75" y2="642.75"/><text fill="#000000" font-family="sans-serif" font-size="14" lengthAdjust="spacing" textLength="99.8936" x="667.35" y="659.7451">type(i) : string</text><text fill="#000000" font-family="sans-serif" font-size="14" lengthAdjust="spacing" textLength="171.9033" x="667.35" y="676.042">ere_request_id(i) : string</text><text fill="#000000" font-family="sans-serif" font-size="14" lengthAdjust="spacing" textLength="167.1455" x="667.35" y="692.3389">timestamp(i) : datetime</text><line style="stroke:#181818;stroke-width:0.5;" x1="662.35" x2="931.2523" y1="699.6406" y2="699.6406"/></a></g><!--class EntityMention--><g class="entity" data-entity="EntityMention" data-source-line="21" data-uid="ent0006" id="entity_EntityMention"><a href="" target="_top" title="An entity mention is a representation of a real-world entity, as provided by the ERS." xlink:actuate="onRequest" xlink:href="" xlink:show="new" xlink:title="An entity mention is a representation of a real-world entity, as provided by the ERS." xlink:type="simple"><rect fill="#F1F1F1" height="96.8906" rx="2.5" ry="2.5" style="stroke:#181818;stroke-width:0.5;" width="224.1123" x="183.74" y="610.75"/><ellipse cx="242.9187" cy="626.75" fill="#ADD1B2" rx="11" ry="11" style="stroke:#181818;stroke-width:1;"/><path d="M245.8875,632.3906 Q245.3093,632.6875 244.6687,632.8281 Q244.0281,632.9844 243.325,632.9844 Q240.825,632.9844 239.4968,631.3438 Q238.1843,629.6875 238.1843,626.5625 Q238.1843,623.4375 239.4968,621.7813 Q240.825,620.125 243.325,620.125 Q244.0281,620.125 244.6687,620.2813 Q245.325,620.4375 245.8875,620.7344 L245.8875,623.4531 Q245.2625,622.875 244.6687,622.6094 Q244.075,622.3281 243.45,622.3281 Q242.1062,622.3281 241.4187,623.4063 Q240.7312,624.4688 240.7312,626.5625 Q240.7312,628.6563 241.4187,629.7344 Q242.1062,630.7969 243.45,630.7969 Q244.075,630.7969 244.6687,630.5313 Q245.2625,630.25 245.8875,629.6719 L245.8875,632.3906 Z " fill="#000000"/><text fill="#000000" font-family="sans-serif" font-size="14" lengthAdjust="spacing" textLength="97.2549" x="263.4187" y="631.5967">EntityMention</text><line style="stroke:#181818;stroke-width:0.5;" x1="184.74" x2="406.8523" y1="642.75" y2="642.75"/><text fill="#000000" font-family="sans-serif" font-size="14" lengthAdjust="spacing" textLength="145.6807" x="189.74" y="659.7451">content_type : string</text><text fill="#000000" font-family="sans-serif" font-size="14" lengthAdjust="spacing" textLength="107.4063" x="189.74" y="676.042">content : string</text><text fill="#000000" font-family="sans-serif" font-size="14" lengthAdjust="spacing" textLength="212.1123" x="189.74" y="692.3389">parsed_representation : string</text><line style="stroke:#181818;stroke-width:0.5;" x1="184.74" x2="406.8523" y1="699.6406" y2="699.6406"/></a></g><!--class ClusterReference--><g class="entity" data-entity="ClusterReference" data-source-line="30" data-uid="ent0011" id="entity_ClusterReference"><a href="" target="_top" title="A reference to a cluster to which an entity is deemed to belong, with an associated confidence score." xlink:actuate="onRequest" xlink:href="" xlink:show="new" xlink:title="A reference to a cluster to which an entity is deemed to belong, with an associated confidence score." xlink:type="simple"><rect fill="#F1F1F1" height="80.5938" rx="2.5" ry="2.5" style="stroke:#181818;stroke-width:0.5;" width="178.6328" x="964.48" y="825.38"/><ellipse cx="990.9581" cy="841.38" fill="#ADD1B2" rx="11" ry="11" style="stroke:#181818;stroke-width:1;"/><path d="M993.9268,847.0206 Q993.3487,847.3175 992.7081,847.4581 Q992.0675,847.6144 991.3643,847.6144 Q988.8643,847.6144 987.5362,845.9738 Q986.2237,844.3175 986.2237,841.1925 Q986.2237,838.0675 987.5362,836.4113 Q988.8643,834.755 991.3643,834.755 Q992.0675,834.755 992.7081,834.9113 Q993.3643,835.0675 993.9268,835.3644 L993.9268,838.0831 Q993.3018,837.505 992.7081,837.2394 Q992.1143,836.9581 991.4893,836.9581 Q990.1456,836.9581 989.4581,838.0363 Q988.7706,839.0988 988.7706,841.1925 Q988.7706,843.2863 989.4581,844.3644 Q990.1456,845.4269 991.4893,845.4269 Q992.1143,845.4269 992.7081,845.1613 Q993.3018,844.88 993.9268,844.3019 L993.9268,847.0206 Z " fill="#000000"/><text fill="#000000" font-family="sans-serif" font-size="14" lengthAdjust="spacing" textLength="121.126" x="1007.5088" y="846.2267">ClusterReference</text><line style="stroke:#181818;stroke-width:0.5;" x1="965.48" x2="1142.1128" y1="857.38" y2="857.38"/><text fill="#000000" font-family="sans-serif" font-size="14" lengthAdjust="spacing" textLength="121.1943" x="970.48" y="874.3751">cluster_id : string</text><text fill="#000000" font-family="sans-serif" font-size="14" lengthAdjust="spacing" textLength="166.6328" x="970.48" y="890.672">confidence_score : float</text><line style="stroke:#181818;stroke-width:0.5;" x1="965.48" x2="1142.1128" y1="897.9738" y2="897.9738"/></a></g><!--class EREResponse--><g class="entity" data-entity="EREResponse" data-source-line="34" data-uid="ent0012" id="entity_EREResponse"><a href="" target="_top" title="Root class to represent all the responses sent by the ERE." xlink:actuate="onRequest" xlink:href="" xlink:show="new" xlink:title="Root class to represent all the responses sent by the ERE." xlink:type="simple"><rect fill="#F1F1F1" height="96.8906" rx="2.5" ry="2.5" style="stroke:#181818;stroke-width:0.5;" width="183.9033" x="691.85" y="396.11"/><ellipse cx="732.3277" cy="412.11" fill="#A9DCDF" rx="11" ry="11" style="stroke:#181818;stroke-width:1;"/><path d="M732.4371,407.4538 L731.2809,412.5319 L733.609,412.5319 L732.4371,407.4538 Z M730.9527,405.2194 L733.9371,405.2194 L737.2965,417.61 L734.8434,417.61 L734.0777,414.5475 L730.7965,414.5475 L730.0465,417.61 L727.609,417.61 L730.9527,405.2194 Z " fill="#000000"/><text fill="#000000" font-family="sans-serif" font-size="14" font-style="italic" lengthAdjust="spacing" textLength="95.2861" x="751.9895" y="416.9567">EREResponse</text><line style="stroke:#181818;stroke-width:0.5;" x1="692.85" x2="874.7533" y1="428.11" y2="428.11"/><text fill="#000000" font-family="sans-serif" font-size="14" lengthAdjust="spacing" textLength="99.8936" x="697.85" y="445.1051">type(i) : string</text><text fill="#000000" font-family="sans-serif" font-size="14" lengthAdjust="spacing" textLength="171.9033" x="697.85" y="461.402">ere_request_id(i) : string</text><text fill="#000000" font-family="sans-serif" font-size="14" lengthAdjust="spacing" textLength="167.1455" x="697.85" y="477.6989">timestamp(i) : datetime</text><line style="stroke:#181818;stroke-width:0.5;" x1="692.85" x2="874.7533" y1="485.0006" y2="485.0006"/></a></g><!--class EntityMentionResolutionRequest--><g class="entity" data-entity="EntityMentionResolutionRequest" data-source-line="41" data-uid="ent0015" id="entity_EntityMentionResolutionRequest"><a href="" target="_top" title="An entity resolution request sent to the ERE, containing the entity to be resolved." xlink:actuate="onRequest" xlink:href="" xlink:show="new" xlink:title="An entity resolution request sent to the ERE, containing the entity to be resolved." xlink:type="simple"><rect fill="#F1F1F1" height="113.1875" rx="2.5" ry="2.5" style="stroke:#181818;stroke-width:0.5;" width="260.5322" x="172.53" y="387.96"/><ellipse cx="187.53" cy="403.96" fill="#ADD1B2" rx="11" ry="11" style="stroke:#181818;stroke-width:1;"/><path d="M190.4988,409.6006 Q189.9206,409.8975 189.28,410.0381 Q188.6394,410.1944 187.9363,410.1944 Q185.4363,410.1944 184.1081,408.5538 Q182.7956,406.8975 182.7956,403.7725 Q182.7956,400.6475 184.1081,398.9913 Q185.4363,397.335 187.9363,397.335 Q188.6394,397.335 189.28,397.4913 Q189.9363,397.6475 190.4988,397.9444 L190.4988,400.6631 Q189.8738,400.085 189.28,399.8194 Q188.6863,399.5381 188.0613,399.5381 Q186.7175,399.5381 186.03,400.6163 Q185.3425,401.6788 185.3425,403.7725 Q185.3425,405.8663 186.03,406.9444 Q186.7175,408.0069 188.0613,408.0069 Q188.6863,408.0069 189.28,407.7413 Q189.8738,407.46 190.4988,406.8819 L190.4988,409.6006 Z " fill="#000000"/><text fill="#000000" font-family="sans-serif" font-size="14" lengthAdjust="spacing" textLength="228.5322" x="201.53" y="408.8067">EntityMentionResolutionRequest</text><line style="stroke:#181818;stroke-width:0.5;" x1="173.53" x2="432.0622" y1="419.96" y2="419.96"/><text fill="#000000" font-family="sans-serif" font-size="14" lengthAdjust="spacing" textLength="243.8652" x="178.53" y="436.9551">excluded_cluster_ids : string  [0..*]</text><text fill="#000000" font-family="sans-serif" font-size="14" lengthAdjust="spacing" textLength="99.8936" x="178.53" y="453.252">type(i) : string</text><text fill="#000000" font-family="sans-serif" font-size="14" lengthAdjust="spacing" textLength="171.9033" x="178.53" y="469.5489">ere_request_id(i) : string</text><text fill="#000000" font-family="sans-serif" font-size="14" lengthAdjust="spacing" textLength="167.1455" x="178.53" y="485.8457">timestamp(i) : datetime</text><line style="stroke:#181818;stroke-width:0.5;" x1="173.53" x2="432.0622" y1="493.1475" y2="493.1475"/></a></g><!--class ERERequest--><g class="entity" data-entity="ERERequest" data-source-line="48" data-uid="ent0017" id="entity_ERERequest"><a href="" target="_top" title="Root class to represent all the requests sent to the ERE." xlink:actuate="onRequest" xlink:href="" xlink:show="new" xlink:title="Root class to represent all the requests sent to the ERE." xlink:type="simple"><rect fill="#F1F1F1" height="96.8906" rx="2.5" ry="2.5" style="stroke:#181818;stroke-width:0.5;" width="183.9033" x="470.85" y="230.07"/><ellipse cx="516.0937" cy="246.07" fill="#A9DCDF" rx="11" ry="11" style="stroke:#181818;stroke-width:1;"/><path d="M516.203,241.4138 L515.0468,246.4919 L517.3749,246.4919 L516.203,241.4138 Z M514.7187,239.1794 L517.703,239.1794 L521.0624,251.57 L518.6093,251.57 L517.8437,248.5075 L514.5624,248.5075 L513.8124,251.57 L511.3749,251.57 L514.7187,239.1794 Z " fill="#000000"/><text fill="#000000" font-family="sans-serif" font-size="14" font-style="italic" lengthAdjust="spacing" textLength="84.916" x="536.5937" y="250.9167">ERERequest</text><line style="stroke:#181818;stroke-width:0.5;" x1="471.85" x2="653.7533" y1="262.07" y2="262.07"/><text fill="#000000" font-family="sans-serif" font-size="14" lengthAdjust="spacing" textLength="99.8936" x="476.85" y="279.0651">type(i) : string</text><text fill="#000000" font-family="sans-serif" font-size="14" lengthAdjust="spacing" textLength="171.9033" x="476.85" y="295.362">ere_request_id(i) : string</text><text fill="#000000" font-family="sans-serif" font-size="14" lengthAdjust="spacing" textLength="167.1455" x="476.85" y="311.6589">timestamp(i) : datetime</text><line style="stroke:#181818;stroke-width:0.5;" x1="471.85" x2="653.7533" y1="318.9606" y2="318.9606"/></a></g><!--class FullRebuildResponse--><g class="entity" data-entity="FullRebuildResponse" data-source-line="54" data-uid="ent0019" id="entity_FullRebuildResponse"><a href="" target="_top" title="A response to a `FullRebuildRequest`, confirming that the rebuild process has started." xlink:actuate="onRequest" xlink:href="" xlink:show="new" xlink:title="A response to a `FullRebuildRequest`, confirming that the rebuild process has started." xlink:type="simple"><rect fill="#F1F1F1" height="96.8906" rx="2.5" ry="2.5" style="stroke:#181818;stroke-width:0.5;" width="183.9033" x="1174.85" y="610.75"/><ellipse cx="1192.804" cy="626.75" fill="#ADD1B2" rx="11" ry="11" style="stroke:#181818;stroke-width:1;"/><path d="M1195.7728,632.3906 Q1195.1946,632.6875 1194.554,632.8281 Q1193.9134,632.9844 1193.2103,632.9844 Q1190.7103,632.9844 1189.3821,631.3438 Q1188.0696,629.6875 1188.0696,626.5625 Q1188.0696,623.4375 1189.3821,621.7813 Q1190.7103,620.125 1193.2103,620.125 Q1193.9134,620.125 1194.554,620.2813 Q1195.2103,620.4375 1195.7728,620.7344 L1195.7728,623.4531 Q1195.1478,622.875 1194.554,622.6094 Q1193.9603,622.3281 1193.3353,622.3281 Q1191.9915,622.3281 1191.304,623.4063 Q1190.6165,624.4688 1190.6165,626.5625 Q1190.6165,628.6563 1191.304,629.7344 Q1191.9915,630.7969 1193.3353,630.7969 Q1193.9603,630.7969 1194.554,630.5313 Q1195.1478,630.25 1195.7728,629.6719 L1195.7728,632.3906 Z " fill="#000000"/><text fill="#000000" font-family="sans-serif" font-size="14" lengthAdjust="spacing" textLength="145.3389" x="1207.4604" y="631.5967">FullRebuildResponse</text><line style="stroke:#181818;stroke-width:0.5;" x1="1175.85" x2="1357.7533" y1="642.75" y2="642.75"/><text fill="#000000" font-family="sans-serif" font-size="14" lengthAdjust="spacing" textLength="99.8936" x="1180.85" y="659.7451">type(i) : string</text><text fill="#000000" font-family="sans-serif" font-size="14" lengthAdjust="spacing" textLength="171.9033" x="1180.85" y="676.042">ere_request_id(i) : string</text><text fill="#000000" font-family="sans-serif" font-size="14" lengthAdjust="spacing" textLength="167.1455" x="1180.85" y="692.3389">timestamp(i) : datetime</text><line style="stroke:#181818;stroke-width:0.5;" x1="1175.85" x2="1357.7533" y1="699.6406" y2="699.6406"/></a></g><!--class EREErrorResponse--><g class="entity" data-entity="EREErrorResponse" data-source-line="59" data-uid="ent0020" id="entity_EREErrorResponse"><a href="" target="_top" title="Response sent by the ERE when some error/exception occurs while processing a request." xlink:actuate="onRequest" xlink:href="" xlink:show="new" xlink:title="Response sent by the ERE when some error/exception occurs while processing a request." xlink:type="simple"><rect fill="#F1F1F1" height="162.0781" rx="2.5" ry="2.5" style="stroke:#181818;stroke-width:0.5;" width="183.9033" x="442.85" y="578.15"/><ellipse cx="467.7223" cy="594.15" fill="#ADD1B2" rx="11" ry="11" style="stroke:#181818;stroke-width:1;"/><path d="M470.6911,599.7906 Q470.1129,600.0875 469.4723,600.2281 Q468.8317,600.3844 468.1286,600.3844 Q465.6286,600.3844 464.3004,598.7438 Q462.9879,597.0875 462.9879,593.9625 Q462.9879,590.8375 464.3004,589.1813 Q465.6286,587.525 468.1286,587.525 Q468.8317,587.525 469.4723,587.6813 Q470.1286,587.8375 470.6911,588.1344 L470.6911,590.8531 Q470.0661,590.275 469.4723,590.0094 Q468.8786,589.7281 468.2536,589.7281 Q466.9098,589.7281 466.2223,590.8063 Q465.5348,591.8688 465.5348,593.9625 Q465.5348,596.0563 466.2223,597.1344 Q466.9098,598.1969 468.2536,598.1969 Q468.8786,598.1969 469.4723,597.9313 Q470.0661,597.65 470.6911,597.0719 L470.6911,599.7906 Z " fill="#000000"/><text fill="#000000" font-family="sans-serif" font-size="14" lengthAdjust="spacing" textLength="129.9648" x="483.9162" y="598.9967">EREErrorResponse</text><line style="stroke:#181818;stroke-width:0.5;" x1="443.85" x2="625.7533" y1="610.15" y2="610.15"/><text fill="#000000" font-family="sans-serif" font-size="14" lengthAdjust="spacing" textLength="126.5264" x="448.85" y="627.1451">error_type : string</text><text fill="#000000" font-family="sans-serif" font-size="14" lengthAdjust="spacing" textLength="122.623" x="448.85" y="643.442">error_title : string</text><text fill="#000000" font-family="sans-serif" font-size="14" lengthAdjust="spacing" textLength="134.5996" x="448.85" y="659.7389">error_detail : string</text><text fill="#000000" font-family="sans-serif" font-size="14" lengthAdjust="spacing" textLength="131.3867" x="448.85" y="676.0357">error_trace : string</text><text fill="#000000" font-family="sans-serif" font-size="14" lengthAdjust="spacing" textLength="99.8936" x="448.85" y="692.3326">type(i) : string</text><text fill="#000000" font-family="sans-serif" font-size="14" lengthAdjust="spacing" textLength="171.9033" x="448.85" y="708.6295">ere_request_id(i) : string</text><text fill="#000000" font-family="sans-serif" font-size="14" lengthAdjust="spacing" textLength="167.1455" x="448.85" y="724.9264">timestamp(i) : datetime</text><line style="stroke:#181818;stroke-width:0.5;" x1="443.85" x2="625.7533" y1="732.2281" y2="732.2281"/></a></g><!--class EREMessage--><g class="entity" data-entity="EREMessage" data-source-line="68" data-uid="ent0021" id="entity_EREMessage"><a href="" target="_top" title="Root abstraction to represent attributes common to both requests and results." xlink:actuate="onRequest" xlink:href="" xlink:show="new" xlink:title="Root abstraction to represent attributes common to both requests and results." xlink:type="simple"><rect fill="#F1F1F1" height="96.8906" rx="2.5" ry="2.5" style="stroke:#181818;stroke-width:0.5;" width="169.0898" x="587.25" y="39.59"/><ellipse cx="623.9902" cy="55.59" fill="#A9DCDF" rx="11" ry="11" style="stroke:#181818;stroke-width:1;"/><path d="M624.0996,50.9338 L622.9433,56.0119 L625.2714,56.0119 L624.0996,50.9338 Z M622.6152,48.6994 L625.5996,48.6994 L628.9589,61.09 L626.5058,61.09 L625.7402,58.0275 L622.4589,58.0275 L621.7089,61.09 L619.2714,61.09 L622.6152,48.6994 Z " fill="#000000"/><text fill="#000000" font-family="sans-serif" font-size="14" font-style="italic" lengthAdjust="spacing" textLength="88.7783" x="642.8213" y="60.4367">EREMessage</text><line style="stroke:#181818;stroke-width:0.5;" x1="588.25" x2="755.3398" y1="71.59" y2="71.59"/><text fill="#000000" font-family="sans-serif" font-size="14" lengthAdjust="spacing" textLength="85.0801" x="593.25" y="88.5851">type : string</text><text fill="#000000" font-family="sans-serif" font-size="14" lengthAdjust="spacing" textLength="157.0898" x="593.25" y="104.882">ere_request_id : string</text><text fill="#000000" font-family="sans-serif" font-size="14" lengthAdjust="spacing" textLength="152.332" x="593.25" y="121.1789">timestamp : datetime</text><line style="stroke:#181818;stroke-width:0.5;" x1="588.25" x2="755.3398" y1="128.4806" y2="128.4806"/></a></g><!--class FullRebuildRequest--><g class="entity" data-entity="FullRebuildRequest" data-source-line="76" data-uid="ent0025" id="entity_FullRebuildRequest"><a href="" target="_top" title="A request to reset all the resolutions computed so far and possibly rebuild them as " xlink:actuate="onRequest" xlink:href="" xlink:show="new" xlink:title="A request to reset all the resolutions computed so far and possibly rebuild them as " xlink:type="simple"><rect fill="#F1F1F1" height="96.8906" rx="2.5" ry="2.5" style="stroke:#181818;stroke-width:0.5;" width="183.9033" x="470.85" y="396.11"/><ellipse cx="493.4706" cy="412.11" fill="#ADD1B2" rx="11" ry="11" style="stroke:#181818;stroke-width:1;"/><path d="M496.4393,417.7506 Q495.8612,418.0475 495.2206,418.1881 Q494.5799,418.3444 493.8768,418.3444 Q491.3768,418.3444 490.0487,416.7038 Q488.7362,415.0475 488.7362,411.9225 Q488.7362,408.7975 490.0487,407.1413 Q491.3768,405.485 493.8768,405.485 Q494.5799,405.485 495.2206,405.6413 Q495.8768,405.7975 496.4393,406.0944 L496.4393,408.8131 Q495.8143,408.235 495.2206,407.9694 Q494.6268,407.6881 494.0018,407.6881 Q492.6581,407.6881 491.9706,408.7663 Q491.2831,409.8288 491.2831,411.9225 Q491.2831,414.0163 491.9706,415.0944 Q492.6581,416.1569 494.0018,416.1569 Q494.6268,416.1569 495.2206,415.8913 Q495.8143,415.61 496.4393,415.0319 L496.4393,417.7506 Z " fill="#000000"/><text fill="#000000" font-family="sans-serif" font-size="14" lengthAdjust="spacing" textLength="134.9688" x="509.164" y="416.9567">FullRebuildRequest</text><line style="stroke:#181818;stroke-width:0.5;" x1="471.85" x2="653.7533" y1="428.11" y2="428.11"/><text fill="#000000" font-family="sans-serif" font-size="14" lengthAdjust="spacing" textLength="99.8936" x="476.85" y="445.1051">type(i) : string</text><text fill="#000000" font-family="sans-serif" font-size="14" lengthAdjust="spacing" textLength="171.9033" x="476.85" y="461.402">ere_request_id(i) : string</text><text fill="#000000" font-family="sans-serif" font-size="14" lengthAdjust="spacing" textLength="167.1455" x="476.85" y="477.6989">timestamp(i) : datetime</text><line style="stroke:#181818;stroke-width:0.5;" x1="471.85" x2="653.7533" y1="485.0006" y2="485.0006"/></a></g><!--class AuditLog--><g class="entity" data-entity="AuditLog" data-source-line="85" data-uid="ent0030" id="entity_AuditLog"><a href="" target="_top" title="Audit trail entry for curation actions" xlink:actuate="onRequest" xlink:href="" xlink:show="new" xlink:title="Audit trail entry for curation actions" xlink:type="simple"><rect fill="#F1F1F1" height="162.0781" rx="2.5" ry="2.5" style="stroke:#181818;stroke-width:0.5;" width="163.5186" x="791.04" y="7"/><ellipse cx="837.5654" cy="23" fill="#ADD1B2" rx="11" ry="11" style="stroke:#181818;stroke-width:1;"/><path d="M840.5341,28.6406 Q839.956,28.9375 839.3154,29.0781 Q838.6748,29.2344 837.9716,29.2344 Q835.4716,29.2344 834.1435,27.5938 Q832.831,25.9375 832.831,22.8125 Q832.831,19.6875 834.1435,18.0313 Q835.4716,16.375 837.9716,16.375 Q838.6748,16.375 839.3154,16.5313 Q839.9716,16.6875 840.5341,16.9844 L840.5341,19.7031 Q839.9091,19.125 839.3154,18.8594 Q838.7216,18.5781 838.0966,18.5781 Q836.7529,18.5781 836.0654,19.6563 Q835.3779,20.7188 835.3779,22.8125 Q835.3779,24.9063 836.0654,25.9844 Q836.7529,27.0469 838.0966,27.0469 Q838.7216,27.0469 839.3154,26.7813 Q839.9091,26.5 840.5341,25.9219 L840.5341,28.6406 Z " fill="#000000"/><text fill="#000000" font-family="sans-serif" font-size="14" lengthAdjust="spacing" textLength="61.9678" x="858.0654" y="27.8467">AuditLog</text><line style="stroke:#181818;stroke-width:0.5;" x1="792.04" x2="953.5586" y1="39" y2="39"/><text fill="#000000" font-family="sans-serif" font-size="14" lengthAdjust="spacing" textLength="66.582" x="797.04" y="55.9951">id : string</text><text fill="#000000" font-family="sans-serif" font-size="14" lengthAdjust="spacing" textLength="89.8926" x="797.04" y="72.292">actor : string</text><text fill="#000000" font-family="sans-serif" font-size="14" lengthAdjust="spacing" textLength="137.5186" x="797.04" y="88.5889">action : AuditAction</text><text fill="#000000" font-family="sans-serif" font-size="14" lengthAdjust="spacing" textLength="151.3887" x="797.04" y="104.8857">instance_type : string</text><text fill="#000000" font-family="sans-serif" font-size="14" lengthAdjust="spacing" textLength="132.8906" x="797.04" y="121.1826">instance_id : string</text><text fill="#000000" font-family="sans-serif" font-size="14" lengthAdjust="spacing" textLength="112.6221" x="797.04" y="137.4795">changes : string</text><text fill="#000000" font-family="sans-serif" font-size="14" lengthAdjust="spacing" textLength="151.5186" x="797.04" y="153.7764">created_at : datetime</text><line style="stroke:#181818;stroke-width:0.5;" x1="792.04" x2="953.5586" y1="161.0781" y2="161.0781"/></a></g><!--link CanonicalEntity to EntityMentionIdentifier--><g class="link" data-entity-1="CanonicalEntity" data-entity-2="EntityMentionIdentifier" data-source-line="26" data-uid="lnk7" id="link_CanonicalEntity_EntityMentionIdentifier"><path codeLine="26" d="M117.4287,700.159 C133.6087,715.759 145.57,725.91 165.8,740.23 C207.81,769.97 252.3919,794.9902 295.0619,816.6902" fill="none" id="CanonicalEntity-EntityMentionIdentifier" style="stroke:#181818;stroke-width:1;"/><polygon fill="#181818" points="108.79,691.83,110.333,698.8741,117.4287,700.159,115.8857,693.1149,108.79,691.83" style="stroke:#181818;stroke-width:1;"/><polygon fill="#181818" points="300.41,819.41,294.201,811.7648,295.9532,817.1435,290.5746,818.8957,300.41,819.41" style="stroke:#181818;stroke-width:1;"/><text fill="#000000" font-family="sans-serif" font-size="13" lengthAdjust="spacing" textLength="88.2578" x="240.8" y="783.2969">equivalent_to</text><text fill="#000000" font-family="sans-serif" font-size="13" lengthAdjust="spacing" textLength="23.0356" x="269.488" y="812.5334">0..*</text></g><!--link Decision to EntityMentionIdentifier--><g class="link" data-entity-1="Decision" data-entity-2="EntityMentionIdentifier" data-source-line="27" data-uid="lnk8" id="link_Decision_EntityMentionIdentifier"><path codeLine="27" d="M965.1131,731.1415 C956.8031,736.8215 958.22,735.45 949.8,740.23 C804.5,822.66 614.7302,850.0034 499.3202,859.3934" fill="none" id="Decision-EntityMentionIdentifier" style="stroke:#181818;stroke-width:1;"/><polygon fill="#181818" points="975.02,724.37,967.8094,724.4535,965.1131,731.1415,972.3237,731.0581,975.02,724.37" style="stroke:#181818;stroke-width:1;"/><polygon fill="#181818" points="493.34,859.88,502.6347,863.137,498.3235,859.4745,501.986,855.1633,493.34,859.88" style="stroke:#181818;stroke-width:1;"/><text fill="#000000" font-family="sans-serif" font-size="13" lengthAdjust="spacing" textLength="142.0479" x="881.8" y="783.2969">about_entity_mention</text><text fill="#000000" font-family="sans-serif" font-size="13" lengthAdjust="spacing" textLength="8.271" x="501.0478" y="855.9341">1</text></g><!--link EntityMentionResolutionResponse to EntityMentionIdentifier--><g class="link" data-entity-1="EntityMentionResolutionResponse" data-entity-2="EntityMentionIdentifier" data-source-line="28" data-uid="lnk9" id="link_EntityMentionResolutionResponse_EntityMentionIdentifier"><path codeLine="28" d="M695.2645,713.5876 C674.8645,724.2476 663.93,729.89 643.8,740.23 C594.03,765.78 543.7728,791.1592 497.9328,814.1592" fill="none" id="EntityMentionResolutionResponse-EntityMentionIdentifier" style="stroke:#181818;stroke-width:1;"/><polygon fill="#181818" points="705.9,708.03,698.7297,707.2636,695.2645,713.5876,702.4348,714.3539,705.9,708.03" style="stroke:#181818;stroke-width:1;"/><polygon fill="#181818" points="492.57,816.85,502.4081,816.3891,497.039,814.6077,498.8204,809.2386,492.57,816.85" style="stroke:#181818;stroke-width:1;"/><text fill="#000000" font-family="sans-serif" font-size="13" lengthAdjust="spacing" textLength="116.4033" x="583.8" y="783.2969">entity_mention_id</text><text fill="#000000" font-family="sans-serif" font-size="13" lengthAdjust="spacing" textLength="8.271" x="497.494" y="806.0055">1</text></g><!--link EntityMention to EntityMentionIdentifier--><g class="link" data-entity-1="EntityMention" data-entity-2="EntityMentionIdentifier" data-source-line="29" data-uid="lnk10" id="link_EntityMention_EntityMentionIdentifier"><path codeLine="29" d="M324.794,718.8892 C341.004,751.7092 354.4324,778.9007 370.6124,811.6507" fill="none" id="EntityMention-EntityMentionIdentifier" style="stroke:#181818;stroke-width:1;"/><polygon fill="#181818" points="319.48,708.13,318.5506,715.281,324.794,718.8892,325.7234,711.7383,319.48,708.13" style="stroke:#181818;stroke-width:1;"/><polygon fill="#181818" points="373.27,817.03,372.8698,807.1893,371.0553,812.5472,365.6973,810.7328,373.27,817.03" style="stroke:#181818;stroke-width:1;"/><text fill="#000000" font-family="sans-serif" font-size="13" lengthAdjust="spacing" textLength="58.3413" x="359.8" y="783.2969">identifier</text><text fill="#000000" font-family="sans-serif" font-size="13" lengthAdjust="spacing" textLength="8.271" x="361.4174" y="806.2108">1</text></g><!--link EntityMentionResolutionResponse to ClusterReference--><g class="link" data-entity-1="EntityMentionResolutionResponse" data-entity-2="ClusterReference" data-source-line="39" data-uid="lnk13" id="link_EntityMentionResolutionResponse_ClusterReference"><path codeLine="39" d="M754.5412,718.263 C739.8112,743.783 735.97,764.22 753.8,787.23 C779.49,820.4 879.3356,841.015 958.0556,852.755" fill="none" id="EntityMentionResolutionResponse-ClusterReference" style="stroke:#181818;stroke-width:1;"/><polygon fill="#181818" points="760.54,707.87,754.0763,711.0669,754.5412,718.263,761.0049,715.0661,760.54,707.87" style="stroke:#181818;stroke-width:1;"/><polygon fill="#181818" points="963.99,853.64,955.6785,848.3562,959.0447,852.9025,954.4984,856.2687,963.99,853.64" style="stroke:#181818;stroke-width:1;"/><text fill="#000000" font-family="sans-serif" font-size="13" lengthAdjust="spacing" textLength="71.3032" x="754.8" y="783.2969">candidates</text><text fill="#000000" font-family="sans-serif" font-size="13" lengthAdjust="spacing" textLength="23.0356" x="933.5516" y="849.277">1..*</text></g><!--reverse link EREResponse to EntityMentionResolutionResponse--><g class="link" data-entity-1="EREResponse" data-entity-2="EntityMentionResolutionResponse" data-source-line="40" data-uid="lnk14" id="link_EREResponse_EntityMentionResolutionResponse"><path codeLine="40" d="M787.812,511.2462 C789.952,546.1362 791.73,575.32 793.87,610.26" fill="none" id="EREResponse-backto-EntityMentionResolutionResponse" style="stroke:#181818;stroke-width:1;"/><polygon fill="none" points="786.71,493.28,781.8232,511.6136,793.8007,510.8789,786.71,493.28" style="stroke:#181818;stroke-width:1;"/></g><!--link EntityMentionResolutionRequest to EntityMention--><g class="link" data-entity-1="EntityMentionResolutionRequest" data-entity-2="EntityMention" data-source-line="47" data-uid="lnk16" id="link_EntityMentionResolutionRequest_EntityMention"><path codeLine="47" d="M300.5631,513.4134 C299.4431,547.2534 298.6387,571.9833 297.5687,604.2733" fill="none" id="EntityMentionResolutionRequest-EntityMention" style="stroke:#181818;stroke-width:1;"/><polygon fill="#181818" points="300.96,501.42,296.7637,507.2844,300.5631,513.4134,304.7593,507.549,300.96,501.42" style="stroke:#181818;stroke-width:1;"/><polygon fill="#181818" points="297.37,610.27,301.6659,601.4074,297.5356,605.2727,293.6703,601.1425,297.37,610.27" style="stroke:#181818;stroke-width:1;"/><text fill="#000000" font-family="sans-serif" font-size="13" lengthAdjust="spacing" textLength="98.0396" x="301.8" y="544.2169">entity_mention</text><text fill="#000000" font-family="sans-serif" font-size="13" lengthAdjust="spacing" textLength="8.271" x="289.0622" y="599.7637">1</text></g><!--reverse link ERERequest to EntityMentionResolutionRequest--><g class="link" data-entity-1="ERERequest" data-entity-2="EntityMentionResolutionRequest" data-source-line="53" data-uid="lnk18" id="link_ERERequest_EntityMentionResolutionRequest"><path codeLine="53" d="M471.6766,337.0146 C441.8466,355.8346 422.62,367.96 391.64,387.51" fill="none" id="ERERequest-backto-EntityMentionResolutionRequest" style="stroke:#181818;stroke-width:1;"/><polygon fill="none" points="486.9,327.41,468.4751,331.9401,474.8781,342.089,486.9,327.41" style="stroke:#181818;stroke-width:1;"/></g><!--reverse link EREResponse to FullRebuildResponse--><g class="link" data-entity-1="EREResponse" data-entity-2="FullRebuildResponse" data-source-line="73" data-uid="lnk22" id="link_EREResponse_FullRebuildResponse"><path codeLine="73" d="M893.3782,475.072 C971.0582,497.592 1066.48,529.79 1157.8,578.15 C1175.02,587.27 1192.53,598.89 1208.33,610.43" fill="none" id="EREResponse-backto-FullRebuildResponse" style="stroke:#181818;stroke-width:1;"/><polygon fill="none" points="876.09,470.06,891.7075,480.8347,895.0488,469.3092,876.09,470.06" style="stroke:#181818;stroke-width:1;"/></g><!--reverse link EREResponse to EREErrorResponse--><g class="link" data-entity-1="EREResponse" data-entity-2="EREErrorResponse" data-source-line="74" data-uid="lnk23" id="link_EREResponse_EREErrorResponse"><path codeLine="74" d="M714.2306,504.9676 C684.5506,530.3076 660.99,550.43 627.14,579.33" fill="none" id="EREResponse-backto-EREErrorResponse" style="stroke:#181818;stroke-width:1;"/><polygon fill="none" points="727.92,493.28,710.3347,500.4045,718.1265,509.5308,727.92,493.28" style="stroke:#181818;stroke-width:1;"/></g><!--reverse link EREMessage to EREResponse--><g class="link" data-entity-1="EREMessage" data-entity-2="EREResponse" data-source-line="75" data-uid="lnk24" id="link_EREMessage_EREResponse"><path codeLine="75" d="M692.3239,154.0134 C713.7339,221.7634 747.24,327.85 768.66,395.65" fill="none" id="EREMessage-backto-EREResponse" style="stroke:#181818;stroke-width:1;"/><polygon fill="none" points="686.9,136.85,686.6028,155.8213,698.045,152.2054,686.9,136.85" style="stroke:#181818;stroke-width:1;"/></g><!--reverse link ERERequest to FullRebuildRequest--><g class="link" data-entity-1="ERERequest" data-entity-2="FullRebuildRequest" data-source-line="81" data-uid="lnk26" id="link_ERERequest_FullRebuildRequest"><path codeLine="81" d="M562.8,345.41 C562.8,366.97 562.8,374.36 562.8,395.89" fill="none" id="ERERequest-backto-FullRebuildRequest" style="stroke:#181818;stroke-width:1;"/><polygon fill="none" points="562.8,327.41,556.8,345.41,568.8,345.41,562.8,327.41" style="stroke:#181818;stroke-width:1;"/></g><!--reverse link EREMessage to ERERequest--><g class="link" data-entity-1="EREMessage" data-entity-2="ERERequest" data-source-line="82" data-uid="lnk27" id="link_EREMessage_ERERequest"><path codeLine="82" d="M635.2783,152.1817 C618.8183,180.6417 606.98,201.12 590.48,229.64" fill="none" id="EREMessage-backto-ERERequest" style="stroke:#181818;stroke-width:1;"/><polygon fill="none" points="644.29,136.6,630.0844,149.1778,640.4721,155.1856,644.29,136.6" style="stroke:#181818;stroke-width:1;"/></g><!--link Decision to ClusterReference--><g class="link" data-entity-1="Decision" data-entity-2="ClusterReference" data-source-line="83" data-uid="lnk28" id="link_Decision_ClusterReference"><path codeLine="83" d="M1050.9009,736.156 C1050.3809,756.336 1050.4,766.72 1050.8,787.23 C1051.03,799.47 1051.242,806.8047 1051.722,818.8947" fill="none" id="Decision-ClusterReference" style="stroke:#181818;stroke-width:1;"/><polygon fill="#181818" points="1051.21,724.16,1047.0568,730.055,1050.9009,736.156,1055.0541,730.261,1051.21,724.16" style="stroke:#181818;stroke-width:1;"/><polygon fill="#181818" points="1051.96,824.89,1055.5998,815.7384,1051.7616,819.8939,1047.6061,816.0558,1051.96,824.89" style="stroke:#181818;stroke-width:1;"/><text fill="#000000" font-family="sans-serif" font-size="13" lengthAdjust="spacing" textLength="71.3032" x="1051.8" y="783.2969">candidates</text><text fill="#000000" font-family="sans-serif" font-size="13" lengthAdjust="spacing" textLength="23.0356" x="1026.8374" y="814.2718">1..*</text></g><!--link Decision to ClusterReference--><g class="link" data-entity-1="Decision" data-entity-2="ClusterReference" data-source-line="84" data-uid="lnk29" id="link_Decision_ClusterReference"><path codeLine="84" d="M1112.2316,734.3025 C1121.2616,748.6825 1122.93,754.26 1127.8,770.23 C1133.99,790.55 1127.6429,805.3204 1112.7729,820.9704" fill="none" id="Decision-ClusterReference-1" style="stroke:#181818;stroke-width:1;"/><polygon fill="#181818" points="1105.85,724.14,1105.6533,731.3484,1112.2316,734.3025,1112.4283,727.094,1105.85,724.14" style="stroke:#181818;stroke-width:1;"/><polygon fill="#181818" points="1108.64,825.32,1117.7391,821.5508,1112.0841,821.6953,1111.9395,816.0403,1108.64,825.32" style="stroke:#181818;stroke-width:1;"/><text fill="#000000" font-family="sans-serif" font-size="13" lengthAdjust="spacing" textLength="130.8887" x="1129.8" y="783.2969">accepted_candidate</text><text fill="#000000" font-family="sans-serif" font-size="13" lengthAdjust="spacing" textLength="24.8066" x="1092.0731" y="814.1729">0..1</text></g><!--SRC=[pLTBRziu4BxxLn0-TOiukxtcK238ka21zk8UWzIboB5CW1QrV2Hh1FdlEtpeQKhoNjhwP94pmtbytmp993M6h1zefIh1gDnMLjZpcZm-ljuJgKg_HWI7i4oOgepLZbbIQ_KikAXAGecnj93GIT6A7PM-VNjw8gyhWh_NWm39tv84VcXoXrhQgvFLsuf59-BPNxsCgZwtiiaPFDjIKQ6kFL9BIgrSRV0_46hHLE4i6581SE34gkOixmr9VfsYPI8gT5g3KTA5Rmt_E33sqb-Zd6Qm5xplRbyWQSv8nAFtzbn3DkQ_WGc3JiGWor93IIqGhPH5wpLwwIs4DFSyvaahE222JUOqzNlPj4zvXvMppk1kuyQtk32KeYmSsadTnuMX5DE0dlCzrkQESFnhnGb6CgxcMPay17PjmFYlHkX1p59Rq44DemJ-iKvNY87Y7C2ntMqpAV7rU2V-cAoQXdrNsnb1xpycyLH7cSMGHW6qY3IXlgdSeOv47S8QbPiNfILFAZU4caI-VepVCZ5wmg3I1VOoCbFRDTK6opNoR83ZozRnVhFvIDP_tTw-Nyzm-ewiFNQVgGm-glMgnuLeuiE2FYsKi_l4i9HADBE8eUki3-qY3CQchpNKTRrrWua7wOm5lOC38grY2TTOxVJj6nWbB4hvZvUZOCTUAqF0S81JR7K5I5MLD-H5s223HoWcFD5yVG_-V3HfcDAGWqayPQQ7TKRsmGZA7QH23llwqm9ri4DW3dRR0KztleV5WD795aE4IXbGsr3MaB3yo_bwDN0YiYzhYBLcjEB2MpKUBVs4VDzibjlROXiC8SvrmI0G4uf9JmczQOQdJuXVIve1Er7_6NWcxV0leWCRpRu3YUcbzj6J_EatAbHApmGlCxHUZ_7R9NWPla7MZ9Fzoz3RStyUR56emTed9-KE2YSa7uxPRgQ6RlHZ81Xi_BY9lK6V8h2m9SJC124_fXZW4KSSMUYsjbcC_SnHlDjkjLPwsAQQA4TT27ikL7W5H1FWbVv4Ca0THpF3svRnJHcllIdAveuMFCrHoTkOdSL9GbYv8C81kImNp22c9ytyZ9GFUFKL4qJBtbXeTdqsX-pgxl9CdKvnkr0us5g-OOlrq7JIcWauNHVOObHvYWqQUeuysSO_Hjvga9P6vc8GN7AkvMRiz25v1WPJDH4zPB1s_XfW53bG7J9NAyHg8SyjIr7fv2-LlqlRoeGybQncz-BYUEs47YlYFFimfKYPfx-VXOs5jahtZWlxHPMnDlw38BgHeeXeVIO7fTldMNfCcV_pIaCLfMSsuvqyd9jzcGbyj5D_UvlZHYiqSmyyqge4CxazyG1y-my0]--></g></svg>