<svg xmlns="http://www.w3.org/2000/svg" xmlns:xlink="http://www.w3.org/1999/xlink" contentStyleType="text/css" data-diagram-type="CLASS" height="921px" preserveAspectRatio="none" style="width:1428px;height:921px;background:#FFFFFF;" version="1.1" viewBox="0 0 1428 921" width="1428px" zoomAndPan="magnify"><defs/><g><!--class CanonicalEntityIdentifier--><g class="entity" data-entity="CanonicalEntityIdentifier" data-source-line="1" data-uid="ent0002" id="entity_CanonicalEntityIdentifier"><a href="" target="_top" title="A logical identity construct providing a stable identity anchor." xlink:actuate="onRequest" xlink:href="" xlink:show="new" xlink:title="A logical identity construct providing a stable identity anchor." xlink:type="simple"><rect fill="#F1F1F1" height="64.2969" rx="2.5" ry="2.5" style="stroke:#181818;stroke-width:0.5;" width="204.6621" x="7" y="627.04"/><ellipse cx="22" cy="643.04" fill="#ADD1B2" rx="11" ry="11" style="stroke:#181818;stroke-width:1;"/><path d="M24.9688,648.6806 Q24.3906,648.9775 23.75,649.1181 Q23.1094,649.2744 22.4063,649.2744 Q19.9063,649.2744 18.5781,647.6338 Q17.2656,645.9775 17.2656,642.8525 Q17.2656,639.7275 18.5781,638.0713 Q19.9063,636.415 22.4063,636.415 Q23.1094,636.415 23.75,636.5713 Q24.4063,636.7275 24.9688,637.0244 L24.9688,639.7431 Q24.3438,639.165 23.75,638.8994 Q23.1563,638.6181 22.5313,638.6181 Q21.1875,638.6181 20.5,639.6963 Q19.8125,640.7588 19.8125,642.8525 Q19.8125,644.9463 20.5,646.0244 Q21.1875,647.0869 22.5313,647.0869 Q23.1563,647.0869 23.75,646.8213 Q24.3438,646.54 24.9688,645.9619 L24.9688,648.6806 Z " fill="#000000"/><text fill="#000000" font-family="sans-serif" font-size="14" lengthAdjust="spacing" textLength="172.6621" x="36" y="647.8867">CanonicalEntityIdentifier</text><line style="stroke:#181818;stroke-width:0.5;" x1="8" x2="210.6621" y1="659.04" y2="659.04"/><text fill="#000000" font-family="sans-serif" font-size="14" lengthAdjust="spacing" textLength="116.6348" x="13" y="676.0351">identifier : string</text><line style="stroke:#181818;stroke-width:0.5;" x1="8" x2="210.6621" y1="683.3369" y2="683.3369"/></a></g><!--class EntityMentionIdentifier--><g class="entity" data-entity="EntityMentionIdentifier" data-source-line="4" data-uid="ent0003" id="entity_EntityMentionIdentifier"><a href="" target="_top" title="A container that groups the attributes needed to identify an entity mention in a resolution request" xlink:actuate="onRequest" xlink:href="" xlink:show="new" xlink:title="A container that groups the attributes needed to identify an entity mention in a resolution request" xlink:type="simple"><rect fill="#F1F1F1" height="96.8906" rx="2.5" ry="2.5" style="stroke:#181818;stroke-width:0.5;" width="192.3232" x="363.17" y="817.23"/><ellipse cx="378.17" cy="833.23" fill="#ADD1B2" rx="11" ry="11" style="stroke:#181818;stroke-width:1;"/><path d="M381.1388,838.8706 Q380.5606,839.1675 379.92,839.3081 Q379.2794,839.4644 378.5763,839.4644 Q376.0763,839.4644 374.7481,837.8238 Q373.4356,836.1675 373.4356,833.0425 Q373.4356,829.9175 374.7481,828.2613 Q376.0763,826.605 378.5763,826.605 Q379.2794,826.605 379.92,826.7613 Q380.5763,826.9175 381.1388,827.2144 L381.1388,829.9331 Q380.5138,829.355 379.92,829.0894 Q379.3263,828.8081 378.7013,828.8081 Q377.3575,828.8081 376.67,829.8863 Q375.9825,830.9488 375.9825,833.0425 Q375.9825,835.1363 376.67,836.2144 Q377.3575,837.2769 378.7013,837.2769 Q379.3263,837.2769 379.92,837.0113 Q380.5138,836.73 381.1388,836.1519 L381.1388,838.8706 Z " fill="#000000"/><text fill="#000000" font-family="sans-serif" font-size="14" lengthAdjust="spacing" textLength="160.3232" x="392.17" y="838.0767">EntityMentionIdentifier</text><line style="stroke:#181818;stroke-width:0.5;" x1="364.17" x2="554.4932" y1="849.23" y2="849.23"/><text fill="#000000" font-family="sans-serif" font-size="14" lengthAdjust="spacing" textLength="120.3809" x="369.17" y="866.2251">source_id : string</text><text fill="#000000" font-family="sans-serif" font-size="14" lengthAdjust="spacing" textLength="127.1074" x="369.17" y="882.522">request_id : string</text><text fill="#000000" font-family="sans-serif" font-size="14" lengthAdjust="spacing" textLength="132.7197" x="369.17" y="898.8189">entity_type : string</text><line style="stroke:#181818;stroke-width:0.5;" x1="364.17" x2="554.4932" y1="906.1206" y2="906.1206"/></a></g><!--class Decision--><g class="entity" data-entity="Decision" data-source-line="9" data-uid="ent0004" id="entity_Decision"><a href="" target="_top" title="Aggregate root representing a resolution decision requiring curation." xlink:actuate="onRequest" xlink:href="" xlink:show="new" xlink:title="Aggregate root representing a resolution decision requiring curation." xlink:type="simple"><rect fill="#F1F1F1" height="129.4844" rx="2.5" ry="2.5" style="stroke:#181818;stroke-width:0.5;" width="172.8496" x="1029.91" y="594.45"/><ellipse cx="1082.2835" cy="610.45" fill="#ADD1B2" rx="11" ry="11" style="stroke:#181818;stroke-width:1;"/><path d="M1085.2523,616.0906 Q1084.6742,616.3875 1084.0335,616.5281 Q1083.3929,616.6844 1082.6898,616.6844 Q1080.1898,616.6844 1078.8617,615.0437 Q1077.5492,613.3875 1077.5492,610.2625 Q1077.5492,607.1375 1078.8617,605.4812 Q1080.1898,603.825 1082.6898,603.825 Q1083.3929,603.825 1084.0335,603.9812 Q1084.6898,604.1375 1085.2523,604.4344 L1085.2523,607.1531 Q1084.6273,606.575 1084.0335,606.3094 Q1083.4398,606.0281 1082.8148,606.0281 Q1081.471,606.0281 1080.7835,607.1062 Q1080.096,608.1687 1080.096,610.2625 Q1080.096,612.3562 1080.7835,613.4344 Q1081.471,614.4969 1082.8148,614.4969 Q1083.4398,614.4969 1084.0335,614.2312 Q1084.6273,613.95 1085.2523,613.3719 L1085.2523,616.0906 Z " fill="#000000"/><text fill="#000000" font-family="sans-serif" font-size="14" lengthAdjust="spacing" textLength="59.6025" x="1102.7835" y="615.2967">Decision</text><line style="stroke:#181818;stroke-width:0.5;" x1="1030.91" x2="1201.7596" y1="626.45" y2="626.45"/><text fill="#000000" font-family="sans-serif" font-size="14" lengthAdjust="spacing" textLength="66.582" x="1035.91" y="643.4451">id : string</text><text fill="#000000" font-family="sans-serif" font-size="14" lengthAdjust="spacing" textLength="160.8496" x="1035.91" y="659.742">status : DecisionStatus</text><text fill="#000000" font-family="sans-serif" font-size="14" lengthAdjust="spacing" textLength="160.4053" x="1035.91" y="676.0389">action : DecisionAction</text><text fill="#000000" font-family="sans-serif" font-size="14" lengthAdjust="spacing" textLength="151.5186" x="1035.91" y="692.3357">created_at : datetime</text><text fill="#000000" font-family="sans-serif" font-size="14" lengthAdjust="spacing" textLength="156.0986" x="1035.91" y="708.6326">updated_at : datetime</text><line style="stroke:#181818;stroke-width:0.5;" x1="1030.91" x2="1201.7596" y1="715.9344" y2="715.9344"/></a></g><!--class EntityMentionResolutionResponse--><g class="entity" data-entity="EntityMentionResolutionResponse" data-source-line="16" data-uid="ent0005" id="entity_EntityMentionResolutionResponse"><a href="" target="_top" title="An entity resolution response returned by the ERE." xlink:actuate="onRequest" xlink:href="" xlink:show="new" xlink:title="An entity resolution response returned by the ERE." xlink:type="simple"><rect fill="#F1F1F1" height="96.8906" rx="2.5" ry="2.5" style="stroke:#181818;stroke-width:0.5;" width="270.9023" x="723.88" y="610.75"/><ellipse cx="738.88" cy="626.75" fill="#ADD1B2" rx="11" ry="11" style="stroke:#181818;stroke-width:1;"/><path d="M741.8488,632.3906 Q741.2706,632.6875 740.63,632.8281 Q739.9894,632.9844 739.2863,632.9844 Q736.7863,632.9844 735.4581,631.3438 Q734.1456,629.6875 734.1456,626.5625 Q734.1456,623.4375 735.4581,621.7813 Q736.7863,620.125 739.2863,620.125 Q739.9894,620.125 740.63,620.2813 Q741.2863,620.4375 741.8488,620.7344 L741.8488,623.4531 Q741.2238,622.875 740.63,622.6094 Q740.0363,622.3281 739.4113,622.3281 Q738.0675,622.3281 737.38,623.4063 Q736.6925,624.4688 736.6925,626.5625 Q736.6925,628.6563 737.38,629.7344 Q738.0675,630.7969 739.4113,630.7969 Q740.0363,630.7969 740.63,630.5313 Q741.2238,630.25 741.8488,629.6719 L741.8488,632.3906 Z " fill="#000000"/><text fill="#000000" font-family="sans-serif" font-size="14" lengthAdjust="spacing" textLength="238.9023" x="752.88" y="631.5967">EntityMentionResolutionResponse</text><line style="stroke:#181818;stroke-width:0.5;" x1="724.88" x2="993.7823" y1="642.75" y2="642.75"/><text fill="#000000" font-family="sans-serif" font-size="14" lengthAdjust="spacing" textLength="99.8936" x="729.88" y="659.7451">type(i) : string</text><text fill="#000000" font-family="sans-serif" font-size="14" lengthAdjust="spacing" textLength="171.9033" x="729.88" y="676.042">ere_request_id(i) : string</text><text fill="#000000" font-family="sans-serif" font-size="14" lengthAdjust="spacing" textLength="167.1455" x="729.88" y="692.3389">timestamp(i) : datetime</text><line style="stroke:#181818;stroke-width:0.5;" x1="724.88" x2="993.7823" y1="699.6406" y2="699.6406"/></a></g><!--class EntityMention--><g class="entity" data-entity="EntityMention" data-source-line="21" data-uid="ent0006" id="entity_EntityMention"><a href="" target="_top" title="An entity mention is a representation of a real-world entity, as provided by the ERS." xlink:actuate="onRequest" xlink:href="" xlink:show="new" xlink:title="An entity mention is a representation of a real-world entity, as provided by the ERS." xlink:type="simple"><rect fill="#F1F1F1" height="96.8906" rx="2.5" ry="2.5" style="stroke:#181818;stroke-width:0.5;" width="224.1123" x="246.27" y="610.75"/><ellipse cx="305.4487" cy="626.75" fill="#ADD1B2" rx="11" ry="11" style="stroke:#181818;stroke-width:1;"/><path d="M308.4175,632.3906 Q307.8393,632.6875 307.1987,632.8281 Q306.5581,632.9844 305.855,632.9844 Q303.355,632.9844 302.0268,631.3438 Q300.7143,629.6875 300.7143,626.5625 Q300.7143,623.4375 302.0268,621.7813 Q303.355,620.125 305.855,620.125 Q306.5581,620.125 307.1987,620.2813 Q307.855,620.4375 308.4175,620.7344 L308.4175,623.4531 Q307.7925,622.875 307.1987,622.6094 Q306.605,622.3281 305.98,622.3281 Q304.6362,622.3281 303.9487,623.4063 Q303.2612,624.4688 303.2612,626.5625 Q303.2612,628.6563 303.9487,629.7344 Q304.6362,630.7969 305.98,630.7969 Q306.605,630.7969 307.1987,630.5313 Q307.7925,630.25 308.4175,629.6719 L308.4175,632.3906 Z " fill="#000000"/><text fill="#000000" font-family="sans-serif" font-size="14" lengthAdjust="spacing" textLength="97.2549" x="325.9487" y="631.5967">EntityMention</text><line style="stroke:#181818;stroke-width:0.5;" x1="247.27" x2="469.3823" y1="642.75" y2="642.75"/><text fill="#000000" font-family="sans-serif" font-size="14" lengthAdjust="spacing" textLength="145.6807" x="252.27" y="659.7451">content_type : string</text><text fill="#000000" font-family="sans-serif" font-size="14" lengthAdjust="spacing" textLength="107.4063" x="252.27" y="676.042">content : string</text><text fill="#000000" font-family="sans-serif" font-size="14" lengthAdjust="spacing" textLength="212.1123" x="252.27" y="692.3389">parsed_representation : string</text><line style="stroke:#181818;stroke-width:0.5;" x1="247.27" x2="469.3823" y1="699.6406" y2="699.6406"/></a></g><!--class ClusterReference--><g class="entity" data-entity="ClusterReference" data-source-line="30" data-uid="ent0011" id="entity_ClusterReference"><a href="" target="_top" title="A reference to a cluster to which an entity is deemed to belong, with an associated confidence score." xlink:actuate="onRequest" xlink:href="" xlink:show="new" xlink:title="A reference to a cluster to which an entity is deemed to belong, with an associated confidence score." xlink:type="simple"><rect fill="#F1F1F1" height="80.5938" rx="2.5" ry="2.5" style="stroke:#181818;stroke-width:0.5;" width="178.6328" x="1027.01" y="825.38"/><ellipse cx="1053.4881" cy="841.38" fill="#ADD1B2" rx="11" ry="11" style="stroke:#181818;stroke-width:1;"/><path d="M1056.4568,847.0206 Q1055.8787,847.3175 1055.2381,847.4581 Q1054.5975,847.6144 1053.8943,847.6144 Q1051.3943,847.6144 1050.0662,845.9738 Q1048.7537,844.3175 1048.7537,841.1925 Q1048.7537,838.0675 1050.0662,836.4113 Q1051.3943,834.755 1053.8943,834.755 Q1054.5975,834.755 1055.2381,834.9113 Q1055.8943,835.0675 1056.4568,835.3644 L1056.4568,838.0831 Q1055.8318,837.505 1055.2381,837.2394 Q1054.6443,836.9581 1054.0193,836.9581 Q1052.6756,836.9581 1051.9881,838.0363 Q1051.3006,839.0988 1051.3006,841.1925 Q1051.3006,843.2863 1051.9881,844.3644 Q1052.6756,845.4269 1054.0193,845.4269 Q1054.6443,845.4269 1055.2381,845.1613 Q1055.8318,844.88 1056.4568,844.3019 L1056.4568,847.0206 Z " fill="#000000"/><text fill="#000000" font-family="sans-serif" font-size="14" lengthAdjust="spacing" textLength="121.126" x="1070.0388" y="846.2267">ClusterReference</text><line style="stroke:#181818;stroke-width:0.5;" x1="1028.01" x2="1204.6428" y1="857.38" y2="857.38"/><text fill="#000000" font-family="sans-serif" font-size="14" lengthAdjust="spacing" textLength="121.1943" x="1033.01" y="874.3751">cluster_id : string</text><text fill="#000000" font-family="sans-serif" font-size="14" lengthAdjust="spacing" textLength="166.6328" x="1033.01" y="890.672">confidence_score : float</text><line style="stroke:#181818;stroke-width:0.5;" x1="1028.01" x2="1204.6428" y1="897.9738" y2="897.9738"/></a></g><!--class EREResponse--><g class="entity" data-entity="EREResponse" data-source-line="34" data-uid="ent0012" id="entity_EREResponse"><a href="" target="_top" title="Root class to represent all the responses sent by the ERE." xlink:actuate="onRequest" xlink:href="" xlink:show="new" xlink:title="Root class to represent all the responses sent by the ERE." xlink:type="simple"><rect fill="#F1F1F1" height="96.8906" rx="2.5" ry="2.5" style="stroke:#181818;stroke-width:0.5;" width="183.9033" x="754.38" y="396.11"/><ellipse cx="794.8577" cy="412.11" fill="#A9DCDF" rx="11" ry="11" style="stroke:#181818;stroke-width:1;"/><path d="M794.9671,407.4538 L793.8109,412.5319 L796.139,412.5319 L794.9671,407.4538 Z M793.4827,405.2194 L796.4671,405.2194 L799.8265,417.61 L797.3734,417.61 L796.6077,414.5475 L793.3265,414.5475 L792.5765,417.61 L790.139,417.61 L793.4827,405.2194 Z " fill="#000000"/><text fill="#000000" font-family="sans-serif" font-size="14" font-style="italic" lengthAdjust="spacing" textLength="95.2861" x="814.5195" y="416.9567">EREResponse</text><line style="stroke:#181818;stroke-width:0.5;" x1="755.38" x2="937.2833" y1="428.11" y2="428.11"/><text fill="#000000" font-family="sans-serif" font-size="14" lengthAdjust="spacing" textLength="99.8936" x="760.38" y="445.1051">type(i) : string</text><text fill="#000000" font-family="sans-serif" font-size="14" lengthAdjust="spacing" textLength="171.9033" x="760.38" y="461.402">ere_request_id(i) : string</text><text fill="#000000" font-family="sans-serif" font-size="14" lengthAdjust="spacing" textLength="167.1455" x="760.38" y="477.6989">timestamp(i) : datetime</text><line style="stroke:#181818;stroke-width:0.5;" x1="755.38" x2="937.2833" y1="485.0006" y2="485.0006"/></a></g><!--class EntityMentionResolutionRequest--><g class="entity" data-entity="EntityMentionResolutionRequest" data-source-line="41" data-uid="ent0015" id="entity_EntityMentionResolutionRequest"><a href="" target="_top" title="An entity resolution request sent to the ERE, containing the entity to be resolved." xlink:actuate="onRequest" xlink:href="" xlink:show="new" xlink:title="An entity resolution request sent to the ERE, containing the entity to be resolved." xlink:type="simple"><rect fill="#F1F1F1" height="113.1875" rx="2.5" ry="2.5" style="stroke:#181818;stroke-width:0.5;" width="260.5322" x="235.06" y="387.96"/><ellipse cx="250.06" cy="403.96" fill="#ADD1B2" rx="11" ry="11" style="stroke:#181818;stroke-width:1;"/><path d="M253.0288,409.6006 Q252.4506,409.8975 251.81,410.0381 Q251.1694,410.1944 250.4663,410.1944 Q247.9663,410.1944 246.6381,408.5538 Q245.3256,406.8975 245.3256,403.7725 Q245.3256,400.6475 246.6381,398.9913 Q247.9663,397.335 250.4663,397.335 Q251.1694,397.335 251.81,397.4913 Q252.4663,397.6475 253.0288,397.9444 L253.0288,400.6631 Q252.4038,400.085 251.81,399.8194 Q251.2163,399.5381 250.5913,399.5381 Q249.2475,399.5381 248.56,400.6163 Q247.8725,401.6788 247.8725,403.7725 Q247.8725,405.8663 248.56,406.9444 Q249.2475,408.0069 250.5913,408.0069 Q251.2163,408.0069 251.81,407.7413 Q252.4038,407.46 253.0288,406.8819 L253.0288,409.6006 Z " fill="#000000"/><text fill="#000000" font-family="sans-serif" font-size="14" lengthAdjust="spacing" textLength="228.5322" x="264.06" y="408.8067">EntityMentionResolutionRequest</text><line style="stroke:#181818;stroke-width:0.5;" x1="236.06" x2="494.5922" y1="419.96" y2="419.96"/><text fill="#000000" font-family="sans-serif" font-size="14" lengthAdjust="spacing" textLength="243.8652" x="241.06" y="436.9551">excluded_cluster_ids : string  [0..*]</text><text fill="#000000" font-family="sans-serif" font-size="14" lengthAdjust="spacing" textLength="99.8936" x="241.06" y="453.252">type(i) : string</text><text fill="#000000" font-family="sans-serif" font-size="14" lengthAdjust="spacing" textLength="171.9033" x="241.06" y="469.5489">ere_request_id(i) : string</text><text fill="#000000" font-family="sans-serif" font-size="14" lengthAdjust="spacing" textLength="167.1455" x="241.06" y="485.8457">timestamp(i) : datetime</text><line style="stroke:#181818;stroke-width:0.5;" x1="236.06" x2="494.5922" y1="493.1475" y2="493.1475"/></a></g><!--class ERERequest--><g class="entity" data-entity="ERERequest" data-source-line="48" data-uid="ent0017" id="entity_ERERequest"><a href="" target="_top" title="Root class to represent all the requests sent to the ERE." xlink:actuate="onRequest" xlink:href="" xlink:show="new" xlink:title="Root class to represent all the requests sent to the ERE." xlink:type="simple"><rect fill="#F1F1F1" height="96.8906" rx="2.5" ry="2.5" style="stroke:#181818;stroke-width:0.5;" width="183.9033" x="533.38" y="230.07"/><ellipse cx="578.6237" cy="246.07" fill="#A9DCDF" rx="11" ry="11" style="stroke:#181818;stroke-width:1;"/><path d="M578.733,241.4138 L577.5768,246.4919 L579.9049,246.4919 L578.733,241.4138 Z M577.2487,239.1794 L580.233,239.1794 L583.5924,251.57 L581.1393,251.57 L580.3737,248.5075 L577.0924,248.5075 L576.3424,251.57 L573.9049,251.57 L577.2487,239.1794 Z " fill="#000000"/><text fill="#000000" font-family="sans-serif" font-size="14" font-style="italic" lengthAdjust="spacing" textLength="84.916" x="599.1237" y="250.9167">ERERequest</text><line style="stroke:#181818;stroke-width:0.5;" x1="534.38" x2="716.2833" y1="262.07" y2="262.07"/><text fill="#000000" font-family="sans-serif" font-size="14" lengthAdjust="spacing" textLength="99.8936" x="539.38" y="279.0651">type(i) : string</text><text fill="#000000" font-family="sans-serif" font-size="14" lengthAdjust="spacing" textLength="171.9033" x="539.38" y="295.362">ere_request_id(i) : string</text><text fill="#000000" font-family="sans-serif" font-size="14" lengthAdjust="spacing" textLength="167.1455" x="539.38" y="311.6589">timestamp(i) : datetime</text><line style="stroke:#181818;stroke-width:0.5;" x1="534.38" x2="716.2833" y1="318.9606" y2="318.9606"/></a></g><!--class FullRebuildResponse--><g class="entity" data-entity="FullRebuildResponse" data-source-line="54" data-uid="ent0019" id="entity_FullRebuildResponse"><a href="" target="_top" title="A response to a `FullRebuildRequest`, confirming that the rebuild process has started." xlink:actuate="onRequest" xlink:href="" xlink:show="new" xlink:title="A response to a `FullRebuildRequest`, confirming that the rebuild process has started." xlink:type="simple"><rect fill="#F1F1F1" height="96.8906" rx="2.5" ry="2.5" style="stroke:#181818;stroke-width:0.5;" width="183.9033" x="1237.38" y="610.75"/><ellipse cx="1255.334" cy="626.75" fill="#ADD1B2" rx="11" ry="11" style="stroke:#181818;stroke-width:1;"/><path d="M1258.3028,632.3906 Q1257.7246,632.6875 1257.084,632.8281 Q1256.4434,632.9844 1255.7403,632.9844 Q1253.2403,632.9844 1251.9121,631.3438 Q1250.5996,629.6875 1250.5996,626.5625 Q1250.5996,623.4375 1251.9121,621.7813 Q1253.2403,620.125 1255.7403,620.125 Q1256.4434,620.125 1257.084,620.2813 Q1257.7403,620.4375 1258.3028,620.7344 L1258.3028,623.4531 Q1257.6778,622.875 1257.084,622.6094 Q1256.4903,622.3281 1255.8653,622.3281 Q1254.5215,622.3281 1253.834,623.4063 Q1253.1465,624.4688 1253.1465,626.5625 Q1253.1465,628.6563 1253.834,629.7344 Q1254.5215,630.7969 1255.8653,630.7969 Q1256.4903,630.7969 1257.084,630.5313 Q1257.6778,630.25 1258.3028,629.6719 L1258.3028,632.3906 Z " fill="#000000"/><text fill="#000000" font-family="sans-serif" font-size="14" lengthAdjust="spacing" textLength="145.3389" x="1269.9904" y="631.5967">FullRebuildResponse</text><line style="stroke:#181818;stroke-width:0.5;" x1="1238.38" x2="1420.2833" y1="642.75" y2="642.75"/><text fill="#000000" font-family="sans-serif" font-size="14" lengthAdjust="spacing" textLength="99.8936" x="1243.38" y="659.7451">type(i) : string</text><text fill="#000000" font-family="sans-serif" font-size="14" lengthAdjust="spacing" textLength="171.9033" x="1243.38" y="676.042">ere_request_id(i) : string</text><text fill="#000000" font-family="sans-serif" font-size="14" lengthAdjust="spacing" textLength="167.1455" x="1243.38" y="692.3389">timestamp(i) : datetime</text><line style="stroke:#181818;stroke-width:0.5;" x1="1238.38" x2="1420.2833" y1="699.6406" y2="699.6406"/></a></g><!--class EREErrorResponse--><g class="entity" data-entity="EREErrorResponse" data-source-line="59" data-uid="ent0020" id="entity_EREErrorResponse"><a href="" target="_top" title="Response sent by the ERE when some error/exception occurs while processing a request." xlink:actuate="onRequest" xlink:href="" xlink:show="new" xlink:title="Response sent by the ERE when some error/exception occurs while processing a request." xlink:type="simple"><rect fill="#F1F1F1" height="162.0781" rx="2.5" ry="2.5" style="stroke:#181818;stroke-width:0.5;" width="183.9033" x="505.38" y="578.15"/><ellipse cx="530.2523" cy="594.15" fill="#ADD1B2" rx="11" ry="11" style="stroke:#181818;stroke-width:1;"/><path d="M533.2211,599.7906 Q532.6429,600.0875 532.0023,600.2281 Q531.3617,600.3844 530.6586,600.3844 Q528.1586,600.3844 526.8304,598.7438 Q525.5179,597.0875 525.5179,593.9625 Q525.5179,590.8375 526.8304,589.1813 Q528.1586,587.525 530.6586,587.525 Q531.3617,587.525 532.0023,587.6813 Q532.6586,587.8375 533.2211,588.1344 L533.2211,590.8531 Q532.5961,590.275 532.0023,590.0094 Q531.4086,589.7281 530.7836,589.7281 Q529.4398,589.7281 528.7523,590.8063 Q528.0648,591.8688 528.0648,593.9625 Q528.0648,596.0563 528.7523,597.1344 Q529.4398,598.1969 530.7836,598.1969 Q531.4086,598.1969 532.0023,597.9313 Q532.5961,597.65 533.2211,597.0719 L533.2211,599.7906 Z " fill="#000000"/><text fill="#000000" font-family="sans-serif" font-size="14" lengthAdjust="spacing" textLength="129.9648" x="546.4462" y="598.9967">EREErrorResponse</text><line style="stroke:#181818;stroke-width:0.5;" x1="506.38" x2="688.2833" y1="610.15" y2="610.15"/><text fill="#000000" font-family="sans-serif" font-size="14" lengthAdjust="spacing" textLength="126.5264" x="511.38" y="627.1451">error_type : string</text><text fill="#000000" font-family="sans-serif" font-size="14" lengthAdjust="spacing" textLength="122.623" x="511.38" y="643.442">error_title : string</text><text fill="#000000" font-family="sans-serif" font-size="14" lengthAdjust="spacing" textLength="134.5996" x="511.38" y="659.7389">error_detail : string</text><text fill="#000000" font-family="sans-serif" font-size="14" lengthAdjust="spacing" textLength="131.3867" x="511.38" y="676.0357">error_trace : string</text><text fill="#000000" font-family="sans-serif" font-size="14" lengthAdjust="spacing" textLength="99.8936" x="511.38" y="692.3326">type(i) : string</text><text fill="#000000" font-family="sans-serif" font-size="14" lengthAdjust="spacing" textLength="171.9033" x="511.38" y="708.6295">ere_request_id(i) : string</text><text fill="#000000" font-family="sans-serif" font-size="14" lengthAdjust="spacing" textLength="167.1455" x="511.38" y="724.9264">timestamp(i) : datetime</text><line style="stroke:#181818;stroke-width:0.5;" x1="506.38" x2="688.2833" y1="732.2281" y2="732.2281"/></a></g><!--class EREMessage--><g class="entity" data-entity="EREMessage" data-source-line="68" data-uid="ent0021" id="entity_EREMessage"><a href="" target="_top" title="Root abstraction to represent attributes common to both requests and results." xlink:actuate="onRequest" xlink:href="" xlink:show="new" xlink:title="Root abstraction to represent attributes common to both requests and results." xlink:type="simple"><rect fill="#F1F1F1" height="96.8906" rx="2.5" ry="2.5" style="stroke:#181818;stroke-width:0.5;" width="169.0898" x="649.79" y="39.59"/><ellipse cx="686.5302" cy="55.59" fill="#A9DCDF" rx="11" ry="11" style="stroke:#181818;stroke-width:1;"/><path d="M686.6396,50.9338 L685.4833,56.0119 L687.8114,56.0119 L686.6396,50.9338 Z M685.1552,48.6994 L688.1396,48.6994 L691.4989,61.09 L689.0458,61.09 L688.2802,58.0275 L684.9989,58.0275 L684.2489,61.09 L681.8114,61.09 L685.1552,48.6994 Z " fill="#000000"/><text fill="#000000" font-family="sans-serif" font-size="14" font-style="italic" lengthAdjust="spacing" textLength="88.7783" x="705.3613" y="60.4367">EREMessage</text><line style="stroke:#181818;stroke-width:0.5;" x1="650.79" x2="817.8798" y1="71.59" y2="71.59"/><text fill="#000000" font-family="sans-serif" font-size="14" lengthAdjust="spacing" textLength="85.0801" x="655.79" y="88.5851">type : string</text><text fill="#000000" font-family="sans-serif" font-size="14" lengthAdjust="spacing" textLength="157.0898" x="655.79" y="104.882">ere_request_id : string</text><text fill="#000000" font-family="sans-serif" font-size="14" lengthAdjust="spacing" textLength="152.332" x="655.79" y="121.1789">timestamp : datetime</text><line style="stroke:#181818;stroke-width:0.5;" x1="650.79" x2="817.8798" y1="128.4806" y2="128.4806"/></a></g><!--class FullRebuildRequest--><g class="entity" data-entity="FullRebuildRequest" data-source-line="76" data-uid="ent0025" id="entity_FullRebuildRequest"><a href="" target="_top" title="A request to reset all the resolutions computed so far and possibly rebuild them as " xlink:actuate="onRequest" xlink:href="" xlink:show="new" xlink:title="A request to reset all the resolutions computed so far and possibly rebuild them as " xlink:type="simple"><rect fill="#F1F1F1" height="96.8906" rx="2.5" ry="2.5" style="stroke:#181818;stroke-width:0.5;" width="183.9033" x="533.38" y="396.11"/><ellipse cx="556.0006" cy="412.11" fill="#ADD1B2" rx="11" ry="11" style="stroke:#181818;stroke-width:1;"/><path d="M558.9693,417.7506 Q558.3912,418.0475 557.7506,418.1881 Q557.1099,418.3444 556.4068,418.3444 Q553.9068,418.3444 552.5787,416.7038 Q551.2662,415.0475 551.2662,411.9225 Q551.2662,408.7975 552.5787,407.1413 Q553.9068,405.485 556.4068,405.485 Q557.1099,405.485 557.7506,405.6413 Q558.4068,405.7975 558.9693,406.0944 L558.9693,408.8131 Q558.3443,408.235 557.7506,407.9694 Q557.1568,407.6881 556.5318,407.6881 Q555.1881,407.6881 554.5006,408.7663 Q553.8131,409.8288 553.8131,411.9225 Q553.8131,414.0163 554.5006,415.0944 Q555.1881,416.1569 556.5318,416.1569 Q557.1568,416.1569 557.7506,415.8913 Q558.3443,415.61 558.9693,415.0319 L558.9693,417.7506 Z " fill="#000000"/><text fill="#000000" font-family="sans-serif" font-size="14" lengthAdjust="spacing" textLength="134.9688" x="571.694" y="416.9567">FullRebuildRequest</text><line style="stroke:#181818;stroke-width:0.5;" x1="534.38" x2="716.2833" y1="428.11" y2="428.11"/><text fill="#000000" font-family="sans-serif" font-size="14" lengthAdjust="spacing" textLength="99.8936" x="539.38" y="445.1051">type(i) : string</text><text fill="#000000" font-family="sans-serif" font-size="14" lengthAdjust="spacing" textLength="171.9033" x="539.38" y="461.402">ere_request_id(i) : string</text><text fill="#000000" font-family="sans-serif" font-size="14" lengthAdjust="spacing" textLength="167.1455" x="539.38" y="477.6989">timestamp(i) : datetime</text><line style="stroke:#181818;stroke-width:0.5;" x1="534.38" x2="716.2833" y1="485.0006" y2="485.0006"/></a></g><!--class AuditLog--><g class="entity" data-entity="AuditLog" data-source-line="85" data-uid="ent0030" id="entity_AuditLog"><a href="" target="_top" title="Audit trail entry for curation actions" xlink:actuate="onRequest" xlink:href="" xlink:show="new" xlink:title="Audit trail entry for curation actions" xlink:type="simple"><rect fill="#F1F1F1" height="162.0781" rx="2.5" ry="2.5" style="stroke:#181818;stroke-width:0.5;" width="163.5186" x="853.57" y="7"/><ellipse cx="900.0954" cy="23" fill="#ADD1B2" rx="11" ry="11" style="stroke:#181818;stroke-width:1;"/><path d="M903.0641,28.6406 Q902.486,28.9375 901.8454,29.0781 Q901.2048,29.2344 900.5016,29.2344 Q898.0016,29.2344 896.6735,27.5938 Q895.361,25.9375 895.361,22.8125 Q895.361,19.6875 896.6735,18.0313 Q898.0016,16.375 900.5016,16.375 Q901.2048,16.375 901.8454,16.5313 Q902.5016,16.6875 903.0641,16.9844 L903.0641,19.7031 Q902.4391,19.125 901.8454,18.8594 Q901.2516,18.5781 900.6266,18.5781 Q899.2829,18.5781 898.5954,19.6563 Q897.9079,20.7188 897.9079,22.8125 Q897.9079,24.9063 898.5954,25.9844 Q899.2829,27.0469 900.6266,27.0469 Q901.2516,27.0469 901.8454,26.7813 Q902.4391,26.5 903.0641,25.9219 L903.0641,28.6406 Z " fill="#000000"/><text fill="#000000" font-family="sans-serif" font-size="14" lengthAdjust="spacing" textLength="61.9678" x="920.5954" y="27.8467">AuditLog</text><line style="stroke:#181818;stroke-width:0.5;" x1="854.57" x2="1016.0886" y1="39" y2="39"/><text fill="#000000" font-family="sans-serif" font-size="14" lengthAdjust="spacing" textLength="66.582" x="859.57" y="55.9951">id : string</text><text fill="#000000" font-family="sans-serif" font-size="14" lengthAdjust="spacing" textLength="89.8926" x="859.57" y="72.292">actor : string</text><text fill="#000000" font-family="sans-serif" font-size="14" lengthAdjust="spacing" textLength="137.5186" x="859.57" y="88.5889">action : AuditAction</text><text fill="#000000" font-family="sans-serif" font-size="14" lengthAdjust="spacing" textLength="151.3887" x="859.57" y="104.8857">instance_type : string</text><text fill="#000000" font-family="sans-serif" font-size="14" lengthAdjust="spacing" textLength="132.8906" x="859.57" y="121.1826">instance_id : string</text><text fill="#000000" font-family="sans-serif" font-size="14" lengthAdjust="spacing" textLength="112.6221" x="859.57" y="137.4795">changes : string</text><text fill="#000000" font-family="sans-serif" font-size="14" lengthAdjust="spacing" textLength="151.5186" x="859.57" y="153.7764">created_at : datetime</text><line style="stroke:#181818;stroke-width:0.5;" x1="854.57" x2="1016.0886" y1="161.0781" y2="161.0781"/></a></g><!--link CanonicalEntityIdentifier to EntityMentionIdentifier--><g class="link" data-entity-1="CanonicalEntityIdentifier" data-entity-2="EntityMentionIdentifier" data-source-line="26" data-uid="lnk7" id="link_CanonicalEntityIdentifier_EntityMentionIdentifier"><path codeLine="26" d="M163.7429,698.4565 C185.8129,713.6565 203.18,725.05 228.33,740.23 C272.59,766.95 317.7104,791.6456 360.1204,813.9656" fill="none" id="CanonicalEntityIdentifier-EntityMentionIdentifier" style="stroke:#181818;stroke-width:1;"/><polygon fill="#181818" points="153.86,691.65,156.5326,698.3476,163.7429,698.4565,161.0703,691.759,153.86,691.65" style="stroke:#181818;stroke-width:1;"/><polygon fill="#181818" points="365.43,816.76,359.3286,809.0287,361.0054,814.4314,355.6027,816.1081,365.43,816.76" style="stroke:#181818;stroke-width:1;"/><text fill="#000000" font-family="sans-serif" font-size="13" lengthAdjust="spacing" textLength="88.2578" x="311.33" y="783.2969">equivalent_to</text><text fill="#000000" font-family="sans-serif" font-size="13" lengthAdjust="spacing" textLength="23.0356" x="332.0563" y="808.28">1..*</text></g><!--link Decision to EntityMentionIdentifier--><g class="link" data-entity-1="Decision" data-entity-2="EntityMentionIdentifier" data-source-line="27" data-uid="lnk8" id="link_Decision_EntityMentionIdentifier"><path codeLine="27" d="M1027.6469,731.1471 C1019.3469,736.8271 1020.75,735.45 1012.33,740.23 C867.04,822.66 677.2602,850.0034 561.8502,859.3934" fill="none" id="Decision-EntityMentionIdentifier" style="stroke:#181818;stroke-width:1;"/><polygon fill="#181818" points="1037.55,724.37,1030.3394,724.4575,1027.6469,731.1471,1034.8575,731.0596,1037.55,724.37" style="stroke:#181818;stroke-width:1;"/><polygon fill="#181818" points="555.87,859.88,565.1647,863.137,560.8535,859.4745,564.516,855.1633,555.87,859.88" style="stroke:#181818;stroke-width:1;"/><text fill="#000000" font-family="sans-serif" font-size="13" lengthAdjust="spacing" textLength="142.0479" x="944.33" y="783.2969">about_entity_mention</text><text fill="#000000" font-family="sans-serif" font-size="13" lengthAdjust="spacing" textLength="8.271" x="563.5778" y="855.9341">1</text></g><!--link EntityMentionResolutionResponse to EntityMentionIdentifier--><g class="link" data-entity-1="EntityMentionResolutionResponse" data-entity-2="EntityMentionIdentifier" data-source-line="28" data-uid="lnk9" id="link_EntityMentionResolutionResponse_EntityMentionIdentifier"><path codeLine="28" d="M757.7945,713.5876 C737.3945,724.2476 726.47,729.89 706.33,740.23 C656.57,765.78 606.3028,791.1592 560.4628,814.1592" fill="none" id="EntityMentionResolutionResponse-EntityMentionIdentifier" style="stroke:#181818;stroke-width:1;"/><polygon fill="#181818" points="768.43,708.03,761.2597,707.2636,757.7945,713.5876,764.9648,714.3539,768.43,708.03" style="stroke:#181818;stroke-width:1;"/><polygon fill="#181818" points="555.1,816.85,564.9381,816.3891,559.569,814.6077,561.3504,809.2386,555.1,816.85" style="stroke:#181818;stroke-width:1;"/><text fill="#000000" font-family="sans-serif" font-size="13" lengthAdjust="spacing" textLength="116.4033" x="646.33" y="783.2969">entity_mention_id</text><text fill="#000000" font-family="sans-serif" font-size="13" lengthAdjust="spacing" textLength="8.271" x="560.024" y="806.0055">1</text></g><!--link EntityMention to EntityMentionIdentifier--><g class="link" data-entity-1="EntityMention" data-entity-2="EntityMentionIdentifier" data-source-line="29" data-uid="lnk10" id="link_EntityMention_EntityMentionIdentifier"><path codeLine="29" d="M387.324,718.8892 C403.534,751.7092 416.9624,778.9007 433.1424,811.6507" fill="none" id="EntityMention-EntityMentionIdentifier" style="stroke:#181818;stroke-width:1;"/><polygon fill="#181818" points="382.01,708.13,381.0806,715.281,387.324,718.8892,388.2534,711.7383,382.01,708.13" style="stroke:#181818;stroke-width:1;"/><polygon fill="#181818" points="435.8,817.03,435.3998,807.1893,433.5853,812.5472,428.2273,810.7328,435.8,817.03" style="stroke:#181818;stroke-width:1;"/><text fill="#000000" font-family="sans-serif" font-size="13" lengthAdjust="spacing" textLength="58.3413" x="422.33" y="783.2969">identifier</text><text fill="#000000" font-family="sans-serif" font-size="13" lengthAdjust="spacing" textLength="8.271" x="423.9474" y="806.2108">1</text></g><!--link EntityMentionResolutionResponse to ClusterReference--><g class="link" data-entity-1="EntityMentionResolutionResponse" data-entity-2="ClusterReference" data-source-line="39" data-uid="lnk13" id="link_EntityMentionResolutionResponse_ClusterReference"><path codeLine="39" d="M817.0712,718.263 C802.3412,743.783 798.51,764.22 816.33,787.23 C842.02,820.4 941.8756,841.015 1020.5956,852.755" fill="none" id="EntityMentionResolutionResponse-ClusterReference" style="stroke:#181818;stroke-width:1;"/><polygon fill="#181818" points="823.07,707.87,816.6063,711.0669,817.0712,718.263,823.5349,715.0661,823.07,707.87" style="stroke:#181818;stroke-width:1;"/><polygon fill="#181818" points="1026.53,853.64,1018.2185,848.3562,1021.5847,852.9025,1017.0384,856.2687,1026.53,853.64" style="stroke:#181818;stroke-width:1;"/><text fill="#000000" font-family="sans-serif" font-size="13" lengthAdjust="spacing" textLength="71.3032" x="817.33" y="783.2969">candidates</text><text fill="#000000" font-family="sans-serif" font-size="13" lengthAdjust="spacing" textLength="23.0356" x="996.0924" y="849.277">1..*</text></g><!--reverse link EREResponse to EntityMentionResolutionResponse--><g class="link" data-entity-1="EREResponse" data-entity-2="EntityMentionResolutionResponse" data-source-line="40" data-uid="lnk14" id="link_EREResponse_EntityMentionResolutionResponse"><path codeLine="40" d="M850.3468,511.2466 C852.4768,546.1366 854.26,575.32 856.4,610.26" fill="none" id="EREResponse-backto-EntityMentionResolutionResponse" style="stroke:#181818;stroke-width:1;"/><polygon fill="none" points="849.25,493.28,844.358,511.6122,856.3357,510.8809,849.25,493.28" style="stroke:#181818;stroke-width:1;"/></g><!--link EntityMentionResolutionRequest to EntityMention--><g class="link" data-entity-1="EntityMentionResolutionRequest" data-entity-2="EntityMention" data-source-line="47" data-uid="lnk16" id="link_EntityMentionResolutionRequest_EntityMention"><path codeLine="47" d="M363.0966,513.4135 C361.9866,547.2535 361.1669,571.9832 360.1069,604.2732" fill="none" id="EntityMentionResolutionRequest-EntityMention" style="stroke:#181818;stroke-width:1;"/><polygon fill="#181818" points="363.49,501.42,359.2954,507.2856,363.0966,513.4135,367.2911,507.5479,363.49,501.42" style="stroke:#181818;stroke-width:1;"/><polygon fill="#181818" points="359.91,610.27,364.2031,601.4061,360.074,605.2727,356.2074,601.1436,359.91,610.27" style="stroke:#181818;stroke-width:1;"/><text fill="#000000" font-family="sans-serif" font-size="13" lengthAdjust="spacing" textLength="98.0396" x="364.33" y="544.2169">entity_mention</text><text fill="#000000" font-family="sans-serif" font-size="13" lengthAdjust="spacing" textLength="8.271" x="351.6035" y="599.7637">1</text></g><!--reverse link ERERequest to EntityMentionResolutionRequest--><g class="link" data-entity-1="ERERequest" data-entity-2="EntityMentionResolutionRequest" data-source-line="53" data-uid="lnk18" id="link_ERERequest_EntityMentionResolutionRequest"><path codeLine="53" d="M534.2066,337.0146 C504.3766,355.8346 485.15,367.96 454.17,387.51" fill="none" id="ERERequest-backto-EntityMentionResolutionRequest" style="stroke:#181818;stroke-width:1;"/><polygon fill="none" points="549.43,327.41,531.0051,331.9401,537.4081,342.089,549.43,327.41" style="stroke:#181818;stroke-width:1;"/></g><!--reverse link EREResponse to FullRebuildResponse--><g class="link" data-entity-1="EREResponse" data-entity-2="FullRebuildResponse" data-source-line="73" data-uid="lnk22" id="link_EREResponse_FullRebuildResponse"><path codeLine="73" d="M955.918,475.0726 C1033.588,497.5926 1129.01,529.79 1220.33,578.15 C1237.55,587.27 1255.06,598.89 1270.87,610.43" fill="none" id="EREResponse-backto-FullRebuildResponse" style="stroke:#181818;stroke-width:1;"/><polygon fill="none" points="938.63,470.06,954.2471,480.8352,957.5888,469.3099,938.63,470.06" style="stroke:#181818;stroke-width:1;"/></g><!--reverse link EREResponse to EREErrorResponse--><g class="link" data-entity-1="EREResponse" data-entity-2="EREErrorResponse" data-source-line="74" data-uid="lnk23" id="link_EREResponse_EREErrorResponse"><path codeLine="74" d="M776.7606,504.9676 C747.0806,530.3076 723.52,550.43 689.68,579.33" fill="none" id="EREResponse-backto-EREErrorResponse" style="stroke:#181818;stroke-width:1;"/><polygon fill="none" points="790.45,493.28,772.8647,500.4045,780.6565,509.5308,790.45,493.28" style="stroke:#181818;stroke-width:1;"/></g><!--reverse link EREMessage to EREResponse--><g class="link" data-entity-1="EREMessage" data-entity-2="EREResponse" data-source-line="75" data-uid="lnk24" id="link_EREMessage_EREResponse"><path codeLine="75" d="M754.8616,154.0141 C776.2616,221.7641 809.78,327.85 831.2,395.65" fill="none" id="EREMessage-backto-EREResponse" style="stroke:#181818;stroke-width:1;"/><polygon fill="none" points="749.44,136.85,749.1402,155.8213,760.5829,152.2069,749.44,136.85" style="stroke:#181818;stroke-width:1;"/></g><!--reverse link ERERequest to FullRebuildRequest--><g class="link" data-entity-1="ERERequest" data-entity-2="FullRebuildRequest" data-source-line="81" data-uid="lnk26" id="link_ERERequest_FullRebuildRequest"><path codeLine="81" d="M625.33,345.41 C625.33,366.97 625.33,374.36 625.33,395.89" fill="none" id="ERERequest-backto-FullRebuildRequest" style="stroke:#181818;stroke-width:1;"/><polygon fill="none" points="625.33,327.41,619.33,345.41,631.33,345.41,625.33,327.41" style="stroke:#181818;stroke-width:1;"/></g><!--reverse link EREMessage to ERERequest--><g class="link" data-entity-1="EREMessage" data-entity-2="ERERequest" data-source-line="82" data-uid="lnk27" id="link_EREMessage_ERERequest"><path codeLine="82" d="M697.8183,152.1817 C681.3583,180.6417 669.51,201.12 653.02,229.64" fill="none" id="EREMessage-backto-ERERequest" style="stroke:#181818;stroke-width:1;"/><polygon fill="none" points="706.83,136.6,692.6244,149.1778,703.0121,155.1856,706.83,136.6" style="stroke:#181818;stroke-width:1;"/></g><!--link Decision to ClusterReference--><g class="link" data-entity-1="Decision" data-entity-2="ClusterReference" data-source-line="83" data-uid="lnk28" id="link_Decision_ClusterReference"><path codeLine="83" d="M1113.4349,736.1559 C1112.9049,756.3359 1112.93,766.72 1113.33,787.23 C1113.57,799.47 1113.7869,806.8045 1114.2569,818.8945" fill="none" id="Decision-ClusterReference" style="stroke:#181818;stroke-width:1;"/><polygon fill="#181818" points="1113.75,724.16,1109.5939,730.0529,1113.4349,736.1559,1117.5911,730.263,1113.75,724.16" style="stroke:#181818;stroke-width:1;"/><polygon fill="#181818" points="1114.49,824.89,1118.1374,815.7414,1114.2958,819.8938,1110.1434,816.0522,1114.49,824.89" style="stroke:#181818;stroke-width:1;"/><text fill="#000000" font-family="sans-serif" font-size="13" lengthAdjust="spacing" textLength="71.3032" x="1114.33" y="783.2969">candidates</text><text fill="#000000" font-family="sans-serif" font-size="13" lengthAdjust="spacing" textLength="23.0356" x="1089.3674" y="814.2718">1..*</text></g><!--link Decision to ClusterReference--><g class="link" data-entity-1="Decision" data-entity-2="ClusterReference" data-source-line="84" data-uid="lnk29" id="link_Decision_ClusterReference"><path codeLine="84" d="M1174.7666,734.2993 C1183.8066,748.6793 1185.46,754.26 1190.33,770.23 C1196.53,790.55 1190.1714,805.319 1175.3114,820.969" fill="none" id="Decision-ClusterReference-1" style="stroke:#181818;stroke-width:1;"/><polygon fill="#181818" points="1168.38,724.14,1168.1869,731.3485,1174.7666,734.2993,1174.9597,727.0908,1168.38,724.14" style="stroke:#181818;stroke-width:1;"/><polygon fill="#181818" points="1171.18,825.32,1180.2778,821.5477,1174.6228,821.6941,1174.4764,816.0392,1171.18,825.32" style="stroke:#181818;stroke-width:1;"/><text fill="#000000" font-family="sans-serif" font-size="13" lengthAdjust="spacing" textLength="130.8887" x="1192.33" y="783.2969">accepted_candidate</text><text fill="#000000" font-family="sans-serif" font-size="13" lengthAdjust="spacing" textLength="24.8066" x="1154.6148" y="814.1729">0..1</text></g><!--SRC=[pLTBRziu4BxxLn0-TOiukxtcK238ka21zk8UWzIboB5CW1QrV2Hh1FdlEtpeQKhoNjhc4akS6Gw_-RuPYabg35a_q4fLWb6vhQomvyySyFz1W5wJnyVNUo9LwLU920lsJ9YgZDMEML9hzIoug4f2YR6qaD1PqOeTbRvzUteYhok2VwyOK_AtPE4t87VefRqxMRsjM4mdPl7LswZg8XdSsr9HeQyzKajAhLnjy3SGQZ5KuImOKW5muCIgPY-V3KbvdM9a8YfCMeDHqeLd3VyuCFOoNwESPh0Nl9zkto1vpbZ4hVVsN4Fsp7y34mQJY8SiImqbjK2qKXQZrvYbZn1WxcNCarT8G8IOp6dgrxAmJsM7bRFEu6gJnhVuOcX5MTYqixgFBuPMJ0DcplTOcpl2yQSL9nZPk9fdRV8KsBK7nbyrKWyYIcr11pMC5lZ3EbqX1ufp8CTsjyr0uklnJlmnMJKD-wwsCuO-VmJnL4URnIED3j0oqeJwfdA7EX9r2E-etBmeBNbokI7K9F7rp_WjSqOl67Iwu5x6PcgvfjfWkKQP3NWyrqJURpOVoVh3xUtxzOowxyZQi_YPof2jMgzwgaWX5lnfePpT9wqbK37C8fkkYpwCYuGOXxusKDV_rWqx7gGp5lGE3iYvYYM6OztJiszbbB1evHzUZe8TUqqDgSC1Jh7f5I1LLTwG5s633MwXcF2IyvK- -Fqnf65AGuumSPUPRjO5sOSWQ7UG2jNicK0BzC5UWHZijWF5xdmtYmV695is4Ifbu6yZNaF2wr-ktAk94vbzMKEiDQCL5pwgyMpf0_9zirbkT8iDCHnnhXy6WmWeWfu0lMd6g0V4lqkUWJlH_nbu1dRu5zc1BMVVaSJqe7ty2w5u-eqAbU2Pq6L6rkinVpk0b-aRRCqOx5_6tbxwysIBHWtNFZafTr0u8Vbmu7RJDNIZ7mF34EF7JUmD-XI9XIqX8XEC_C1YW5iSSNXXsjfcEVOpX_9kkzLQwM6RQauvwaBOSw72oo260E_q9ue1wZYa6TwxZ6_AU05EfsnkQo7Jd9HyZDcfd2o4bGic753BSY4CSdeopC-0VA2hhmWGBNjZeLdrQ0xLrTtgcJgTudAXSB2rUiCMwwdff3KJTBhkO8kdoajiqD1puias_Z7pLWDO6fkBGN2fkLQRiTC7y0mCfceIUa2mTluQO1GvK1sGgnLojP3dLgNeTFBNoz-bRMMEF0LMitfnSRnsGeyTSPvzc7AapClVpy8cGbkbUyU5_QBAM1l_G93TA55aj3wJWzBjXrhwh3B_vtiDNPIUMOotyx1lzXjDuESxzRUtEMsqHZFtm2EjIZ2JonEVWc__0G00]--></g></svg>